<?xml version="1.0" encoding="UTF-8"?>
<svg version="1.1" xmlns="http://www.w3.org/2000/svg" width="380" height="73">
<path d="M0 0 C3.63 0 7.26 0 11 0 C10.67 1.65 10.34 3.3 10 5 C10.99 5 11.98 5 13 5 C13.33 3.35 13.66 1.7 14 0 C17.3 1.32 20.6 2.64 24 4 C23.34 5.98 22.68 7.96 22 10 C22.7425 9.46375 23.485 8.9275 24.25 8.375 C27 7 27 7 29.0625 7.5625 C31.26650228 9.1977275 33.1289649 10.99531953 35 13 C34.34 14.32 33.68 15.64 33 17 C33.66 17 34.32 17 35 17 C35.99 17 36.98 17 38 17 C41 23.625 41 23.625 41 27 C39.68 27.66 38.36 28.32 37 29 C37 29.66 37 30.32 37 31 C38.98 31 40.96 31 43 31 C43 34.63 43 38.26 43 42 C41.02 42 39.04 42 37 42 C37 42.99 37 43.98 37 45 C38.32 45 39.64 45 41 45 C40.44894091 48.9492568 39.61064629 52.34920174 38 56 C36.02 55.67 34.04 55.34 32 55 C33.485 56.485 33.485 56.485 35 58 C33.55873214 61.36295835 31.79407345 63.62927102 29 66 C26 66 26 66 24.3125 64.5 C23.879375 64.005 23.44625 63.51 23 63 C23.66 63.99 24.32 64.98 25 66 C25 66.99 25 67.98 25 69 C18.375 72 18.375 72 15 72 C14.67 70.68 14.34 69.36 14 68 C12.68 68 11.36 68 10 68 C10 69.65 10 71.3 10 73 C6.37 73 2.74 73 -1 73 C-0.67 71.35 -0.34 69.7 0 68 C-0.99 68 -1.98 68 -3 68 C-3 69.32 -3 70.64 -3 72 C-6.9492568 71.44894091 -10.34920174 70.61064629 -14 69 C-13.34 67.02 -12.68 65.04 -12 63 C-12.4125 63.515625 -12.825 64.03125 -13.25 64.5625 C-15 66 -15 66 -16.875 66 C-19.91943802 64.56732329 -21.79702234 62.50894678 -24 60 C-24 59.34 -24 58.68 -24 58 C-23.01 57.34 -22.02 56.68 -21 56 C-23.475 56.495 -23.475 56.495 -26 57 C-26.67154933 55.71086513 -27.33708859 54.41859796 -28 53.125 C-28.37125 52.40570313 -28.7425 51.68640625 -29.125 50.9453125 C-30 49 -30 49 -30 47 C-28.02 46.505 -28.02 46.505 -26 46 C-26 44.68 -26 43.36 -26 42 C-27.65 42 -29.3 42 -31 42 C-31 38.37 -31 34.74 -31 31 C-29.35 31 -27.7 31 -26 31 C-26 30.34 -26 29.68 -26 29 C-27.65 28.67 -29.3 28.34 -31 28 C-29.8905928 24.51329166 -28.73662334 21.22515763 -27 18 C-25.35 18.33 -23.7 18.66 -22 19 C-22 18.34 -22 17.68 -22 17 C-22.66 16.67 -23.32 16.34 -24 16 C-23.52794881 11.75153925 -21.11122478 9.73180712 -18 7 C-16 7 -16 7 -14.375 8.5 C-13.92125 8.995 -13.4675 9.49 -13 10 C-13.66 8.35 -14.32 6.7 -15 5 C-13.71086513 4.32845067 -12.41859796 3.66291141 -11.125 3 C-10.40570312 2.62875 -9.68640625 2.2575 -8.9453125 1.875 C-7 1 -7 1 -5 1 C-4.67 2.65 -4.34 4.3 -4 6 C-2.68 5.67 -1.36 5.34 0 5 C0 3.35 0 1.7 0 0 Z " fill="#F2B034" transform="translate(31,0)"/>
<path d="M0 0 C0.99 0 1.98 0 3 0 C3 0.66 3 1.32 3 2 C3.6290625 2.06316406 4.258125 2.12632813 4.90625 2.19140625 C11.14019184 3.08331058 14.88684104 4.90443531 19.6015625 9.05078125 C21.36553408 11.50950141 21.27512224 13.03988853 21 16 C20.01 16.495 20.01 16.495 19 17 C19 15.35 19 13.7 19 12 C17.89140625 12.08378906 16.7828125 12.16757812 15.640625 12.25390625 C14.17710672 12.35710305 12.71356369 12.45994926 11.25 12.5625 C10.52039062 12.61857422 9.79078125 12.67464844 9.0390625 12.73242188 C5.45046349 12.97709908 2.44972775 12.99666259 -1 12 C-1 12.66 -1 13.32 -1 14 C-1.66 14 -2.32 14 -3 14 C-3 13.34 -3 12.68 -3 12 C-3.99 12 -4.98 12 -6 12 C-6.33 13.32 -6.66 14.64 -7 16 C-7.33 14.68 -7.66 13.36 -8 12 C-8.99 12.33 -9.98 12.66 -11 13 C-12.22969878 16.51190809 -12.22969878 16.51190809 -13 20 C-12.278125 19.814375 -11.55625 19.62875 -10.8125 19.4375 C-7.87173027 18.98004693 -5.85896942 19.26483643 -3 20 C-2.67 19.34 -2.34 18.68 -2 18 C-1.67 18.33 -1.34 18.66 -1 19 C0.66617115 19.04063832 2.33388095 19.042721 4 19 C4.33 18.34 4.66 17.68 5 17 C3.68 17.33 2.36 17.66 1 18 C1 17.01 1 16.02 1 15 C2.98 15 4.96 15 7 15 C7 16.65 7 18.3 7 20 C7.99 20 8.98 20 10 20 C10 18.35 10 16.7 10 15 C10.66 15 11.32 15 12 15 C12 16.98 12 18.96 12 21 C12.99 21 13.98 21 15 21 C15 21.99 15 22.98 15 24 C10.25 23.125 10.25 23.125 8 22 C8 22.66 8 23.32 8 24 C7.34 24 6.68 24 6 24 C6.33 24.99 6.66 25.98 7 27 C11.29 27 15.58 27 20 27 C19.505 28.485 19.505 28.485 19 30 C19.99 30 20.98 30 22 30 C22 28.02 22 26.04 22 24 C22.33 24 22.66 24 23 24 C23 25.65 23 27.3 23 29 C23.66 29 24.32 29 25 29 C25.39391326 33.46435025 24.25077638 36.16534395 22 40 C20.3125 41.875 20.3125 41.875 19 43 C20.65 43.33 22.3 43.66 24 44 C21.09448452 47.12901667 17.73294112 49.21091768 14.15625 51.5 C11.98241964 52.89267718 11.98241964 52.89267718 10.46875 54.6875 C9 56 9 56 5 56 C5 57.65 5 59.3 5 61 C2.69 61 0.38 61 -2 61 C-2 59.35 -2 57.7 -2 56 C-3.97536745 56.34786708 -3.97536745 56.34786708 -6 57 C-6.33 57.66 -6.66 58.32 -7 59 C-8.98 58.67 -10.96 58.34 -13 58 C-14.04005702 54.61981469 -14.08004482 51.5219721 -14 48 C-14.639375 47.731875 -15.27875 47.46375 -15.9375 47.1875 C-18 46 -18 46 -19 43 C-17.35 43 -15.7 43 -14 43 C-14 42.34 -14 41.68 -14 41 C-14.66 41 -15.32 41 -16 41 C-17.5 38.8125 -17.5 38.8125 -19 36 C-19.391875 35.278125 -19.78375 34.55625 -20.1875 33.8125 C-21.41329649 29.5693583 -21.15331105 25.38639943 -21 21 C-22.32 21 -23.64 21 -25 21 C-25 20.34 -25 19.68 -25 19 C-24.236875 18.95875 -23.47375 18.9175 -22.6875 18.875 C-19.72913496 18.25191147 -19.72913496 18.25191147 -18.5 15.25 C-18.005 14.1775 -17.51 13.105 -17 12 C-13.18115594 7.39492334 -8.44311676 4.3953791 -3 2 C-2.01 2 -1.02 2 0 2 C0 1.34 0 0.68 0 0 Z " fill="#F4D947" transform="translate(34,11)"/>
<path d="M0 0 C0.99 0 1.98 0 3 0 C3.33 0.66 3.66 1.32 4 2 C4.33 1.34 4.66 0.68 5 0 C5.99 0 6.98 0 8 0 C8 0.66 8 1.32 8 2 C8.66 2 9.32 2 10 2 C10 1.34 10 0.68 10 0 C16.6 0 23.2 0 30 0 C30.495 1.98 30.495 1.98 31 4 C31.66 2.68 32.32 1.36 33 0 C33.495 0.99 33.495 0.99 34 2 C35.97888961 2.72693904 37.97954558 3.39816251 40 4 C41.5013979 10.60615076 40.30737687 16.41989657 39 23 C40.99786055 22.1470525 40.99786055 22.1470525 43 21 C43.80528889 18.94999129 43.80528889 18.94999129 44 17 C45.65 17 47.3 17 49 17 C49 14.69 49 12.38 49 10 C47.35 10 45.7 10 44 10 C44.33 8.68 44.66 7.36 45 6 C45 6.66 45 7.32 45 8 C46.98 8 48.96 8 51 8 C51 11.63 51 15.26 51 19 C49.02 19 47.04 19 45 19 C45 19.99 45 20.98 45 22 C46.32 22 47.64 22 49 22 C48.44894091 25.9492568 47.61064629 29.34920174 46 33 C43.03 32.505 43.03 32.505 40 32 C40.99 32.99 41.98 33.98 43 35 C41.55873214 38.36295835 39.79407345 40.62927102 37 43 C34 43 34 43 32.3125 41.5 C31.879375 41.005 31.44625 40.51 31 40 C31.66 40.99 32.32 41.98 33 43 C33 43.99 33 44.98 33 46 C26.375 49 26.375 49 23 49 C22.67 47.68 22.34 46.36 22 45 C20.68 45 19.36 45 18 45 C18 46.65 18 48.3 18 50 C14.37 50 10.74 50 7 50 C7.33 48.35 7.66 46.7 8 45 C7.01 44.67 6.02 44.34 5 44 C6.32 44 7.64 44 9 44 C9 45.65 9 47.3 9 49 C11.31 49 13.62 49 16 49 C16 47.35 16 45.7 16 44 C16.7425 43.7525 17.485 43.505 18.25 43.25 C21.03257059 42.18843035 21.03257059 42.18843035 22.75 40.1875 C26.03770028 36.99112472 29.95643052 35.1081858 34 33 C32.68 32.34 31.36 31.68 30 31 C30.495 29.515 30.495 29.515 31 28 C31.66 28 32.32 28 33 28 C33.185625 26.948125 33.185625 26.948125 33.375 25.875 C34.03838345 22.82343613 34.97211955 19.94659062 36 17 C33.03 17.495 33.03 17.495 30 18 C29.67 17.34 29.34 16.68 29 16 C25.37 16 21.74 16 18 16 C17.67 14.68 17.34 13.36 17 12 C17.66 12 18.32 12 19 12 C19 11.34 19 10.68 19 10 C21.31 10.66 23.62 11.32 26 12 C26 11.01 26 10.02 26 9 C25.01 9 24.02 9 23 9 C23 7.02 23 5.04 23 3 C22.34 3 21.68 3 21 3 C21 4.65 21 6.3 21 8 C20.01 8 19.02 8 18 8 C18 6.35 18 4.7 18 3 C16.02 3 14.04 3 12 3 C12.33 3.66 12.66 4.32 13 5 C13.99 5 14.98 5 16 5 C15.67 5.99 15.34 6.98 15 8 C9.33333333 8 3.66666667 8 -2 8 C-1.125 1.125 -1.125 1.125 0 0 Z " fill="#EBDC41" transform="translate(23,23)"/>
<path d="M0 0 C2.5 1.3125 2.5 1.3125 4.5 5.3125 C10.44 4.8175 10.44 4.8175 16.5 4.3125 C16.83 2.9925 17.16 1.6725 17.5 0.3125 C19.1875 -0.5 19.1875 -0.5 21.5 -0.6875 C24.63047699 1.98485841 27.13568932 4.95269009 29.5 8.3125 C28.51 8.3125 27.52 8.3125 26.5 8.3125 C26.5 12.6025 26.5 16.8925 26.5 21.3125 C25.015 20.8175 25.015 20.8175 23.5 20.3125 C23.5 16.3525 23.5 12.3925 23.5 8.3125 C21.19 8.3125 18.88 8.3125 16.5 8.3125 C16.5 8.9725 16.5 9.6325 16.5 10.3125 C18.975 10.8075 18.975 10.8075 21.5 11.3125 C22.125 13.625 22.125 13.625 22.5 16.3125 C21.84 17.3025 21.18 18.2925 20.5 19.3125 C19.51 18.9825 18.52 18.6525 17.5 18.3125 C18.16 16.6625 18.82 15.0125 19.5 13.3125 C18.84 13.6425 18.18 13.9725 17.5 14.3125 C17.09270772 16.63406597 16.75561323 18.9693787 16.5 21.3125 C15.51 20.9825 14.52 20.6525 13.5 20.3125 C13.5 19.3225 13.5 18.3325 13.5 17.3125 C12.324375 17.4053125 12.324375 17.4053125 11.125 17.5 C10.25875 17.438125 9.3925 17.37625 8.5 17.3125 C6.5 14.3125 6.5 14.3125 6.8125 12.1875 C7.5 10.3125 7.5 10.3125 8.5 9.3125 C7.18 8.9825 5.86 8.6525 4.5 8.3125 C4.995 14.7475 4.995 14.7475 5.5 21.3125 C4.51 20.9825 3.52 20.6525 2.5 20.3125 C2.5 16.3525 2.5 12.3925 2.5 8.3125 C1.51 8.3125 0.52 8.3125 -0.5 8.3125 C-0.5 12.6025 -0.5 16.8925 -0.5 21.3125 C-1.49 20.9825 -2.48 20.6525 -3.5 20.3125 C-3.5 18.0025 -3.5 15.6925 -3.5 13.3125 C-4.49 13.3125 -5.48 13.3125 -6.5 13.3125 C-6.5 14.3025 -6.5 15.2925 -6.5 16.3125 C-7.82 15.9825 -9.14 15.6525 -10.5 15.3125 C-10.5 13.9925 -10.5 12.6725 -10.5 11.3125 C-9.0459375 11.126875 -9.0459375 11.126875 -7.5625 10.9375 C-6.551875 10.73125 -5.54125 10.525 -4.5 10.3125 C-4.17 9.6525 -3.84 8.9925 -3.5 8.3125 C-8.12 8.3125 -12.74 8.3125 -17.5 8.3125 C-17.17 8.9725 -16.84 9.6325 -16.5 10.3125 C-14.47536745 10.96463292 -14.47536745 10.96463292 -12.5 11.3125 C-11.8125 13.625 -11.8125 13.625 -11.5 16.3125 C-12.9375 18.125 -12.9375 18.125 -14.5 19.3125 C-15.16 18.6525 -15.82 17.9925 -16.5 17.3125 C-15.84 16.3225 -15.18 15.3325 -14.5 14.3125 C-15.16 14.3125 -15.82 14.3125 -16.5 14.3125 C-16.83 16.6225 -17.16 18.9325 -17.5 21.3125 C-18.49 20.9825 -19.48 20.6525 -20.5 20.3125 C-20.5 19.6525 -20.5 18.9925 -20.5 18.3125 C-21.28375 18.02375 -22.0675 17.735 -22.875 17.4375 C-25.5 16.3125 -25.5 16.3125 -27.5 14.3125 C-26.96428571 10.77678571 -26.96428571 10.77678571 -25.5 9.3125 C-26.49 9.3125 -27.48 9.3125 -28.5 9.3125 C-28.5 13.2725 -28.5 17.2325 -28.5 21.3125 C-29.49 20.9825 -30.48 20.6525 -31.5 20.3125 C-31.5 17.6725 -31.5 15.0325 -31.5 12.3125 C-32.82 12.6425 -34.14 12.9725 -35.5 13.3125 C-35.5 14.3025 -35.5 15.2925 -35.5 16.3125 C-34.51 16.6425 -33.52 16.9725 -32.5 17.3125 C-32.83 18.3025 -33.16 19.2925 -33.5 20.3125 C-34.49 20.3125 -35.48 20.3125 -36.5 20.3125 C-38.25 18.125 -38.25 18.125 -39.5 15.3125 C-39.1875 12.5 -39.1875 12.5 -38.5 10.3125 C-37.51 9.9825 -36.52 9.6525 -35.5 9.3125 C-37.48 8.6525 -39.46 7.9925 -41.5 7.3125 C-41.17 6.6525 -40.84 5.9925 -40.5 5.3125 C-28.62 5.3125 -16.74 5.3125 -4.5 5.3125 C-4.5 3.6625 -4.5 2.0125 -4.5 0.3125 C-2.5 -0.6875 -2.5 -0.6875 0 0 Z M-2.5 2.3125 C-2.17 3.3025 -1.84 4.2925 -1.5 5.3125 C-0.18 4.9825 1.14 4.6525 2.5 4.3125 C1.84 3.6525 1.18 2.9925 0.5 2.3125 C-0.49 2.3125 -1.48 2.3125 -2.5 2.3125 Z M19.5 2.3125 C19.83 3.3025 20.16 4.2925 20.5 5.3125 C21.49 5.3125 22.48 5.3125 23.5 5.3125 C23.17 4.3225 22.84 3.3325 22.5 2.3125 C21.51 2.3125 20.52 2.3125 19.5 2.3125 Z M-24.5 12.3125 C-24.17 13.3025 -23.84 14.2925 -23.5 15.3125 C-22.18 14.6525 -20.86 13.9925 -19.5 13.3125 C-19.83 12.6525 -20.16 11.9925 -20.5 11.3125 C-22.5745356 11.1634288 -22.5745356 11.1634288 -24.5 12.3125 Z M9.5 12.3125 C9.5 13.3025 9.5 14.2925 9.5 15.3125 C10.82 14.9825 12.14 14.6525 13.5 14.3125 C13.5 13.3225 13.5 12.3325 13.5 11.3125 C11.4254644 11.1634288 11.4254644 11.1634288 9.5 12.3125 Z " fill="#000000" transform="translate(244.5,17.6875)"/>
<path d="M0 0 C2.5 1.25 2.5 1.25 4.5 4.25 C7.84613512 4.83687784 7.84613512 4.83687784 11.625 4.9375 C13.54699219 5.03611328 13.54699219 5.03611328 15.5078125 5.13671875 C16.49523437 5.17410156 17.48265625 5.21148438 18.5 5.25 C18.995 6.735 18.995 6.735 19.5 8.25 C18.84 8.25 18.18 8.25 17.5 8.25 C17.5 12.54 17.5 16.83 17.5 21.25 C16.51 20.92 15.52 20.59 14.5 20.25 C14.5 19.26 14.5 18.27 14.5 17.25 C13.736875 17.3325 12.97375 17.415 12.1875 17.5 C9.5 17.25 9.5 17.25 7.625 15.4375 C7.25375 14.715625 6.8825 13.99375 6.5 13.25 C6.83 12.26 7.16 11.27 7.5 10.25 C8.16 10.25 8.82 10.25 9.5 10.25 C9.5 9.59 9.5 8.93 9.5 8.25 C7.85 8.25 6.2 8.25 4.5 8.25 C4.5 12.54 4.5 16.83 4.5 21.25 C3.51 20.92 2.52 20.59 1.5 20.25 C1.5 16.62 1.5 12.99 1.5 9.25 C0.84 9.25 0.18 9.25 -0.5 9.25 C-0.5 13.21 -0.5 17.17 -0.5 21.25 C-1.49 20.92 -2.48 20.59 -3.5 20.25 C-3.5 17.61 -3.5 14.97 -3.5 12.25 C-4.82 12.58 -6.14 12.91 -7.5 13.25 C-7.5 14.24 -7.5 15.23 -7.5 16.25 C-6.51 16.58 -5.52 16.91 -4.5 17.25 C-4.995 18.735 -4.995 18.735 -5.5 20.25 C-8.66115776 18.88016497 -9.4927092 18.2609362 -11.5 15.25 C-11.3125 13.1875 -11.3125 13.1875 -10.5 11.25 C-9.51 10.59 -8.52 9.93 -7.5 9.25 C-9.48 9.25 -11.46 9.25 -13.5 9.25 C-14.18707555 11.74064888 -14.5 13.62886292 -14.5 16.25 C-13.51 16.58 -12.52 16.91 -11.5 17.25 C-11.5 18.24 -11.5 19.23 -11.5 20.25 C-15.75177923 19.77758009 -17.79969203 17.40035929 -20.5 14.25 C-20.5 13.26 -20.5 12.27 -20.5 11.25 C-19.18 11.25 -17.86 11.25 -16.5 11.25 C-16.5 10.26 -16.5 9.27 -16.5 8.25 C-18.48 8.25 -20.46 8.25 -22.5 8.25 C-22.5 12.54 -22.5 16.83 -22.5 21.25 C-23.49 20.92 -24.48 20.59 -25.5 20.25 C-25.5 16.62 -25.5 12.99 -25.5 9.25 C-26.16 8.92 -26.82 8.59 -27.5 8.25 C-27.5 12.54 -27.5 16.83 -27.5 21.25 C-28.49 20.92 -29.48 20.59 -30.5 20.25 C-30.5 18.6 -30.5 16.95 -30.5 15.25 C-31.82 15.25 -33.14 15.25 -34.5 15.25 C-34.5 15.91 -34.5 16.57 -34.5 17.25 C-35.82 16.92 -37.14 16.59 -38.5 16.25 C-37.84 13.28 -37.18 10.31 -36.5 7.25 C-37.16 7.25 -37.82 7.25 -38.5 7.25 C-38.17 8.57 -37.84 9.89 -37.5 11.25 C-38.82 10.59 -40.14 9.93 -41.5 9.25 C-41.17 7.93 -40.84 6.61 -40.5 5.25 C-39.695625 5.435625 -38.89125 5.62125 -38.0625 5.8125 C-37.216875 5.956875 -36.37125 6.10125 -35.5 6.25 C-35.17 5.92 -34.84 5.59 -34.5 5.25 C-32.35613343 5.09141158 -30.20733162 4.99870702 -28.05859375 4.93359375 C-26.10083008 4.87075195 -26.10083008 4.87075195 -24.10351562 4.80664062 C-22.7148467 4.76682392 -21.32617478 4.72711175 -19.9375 4.6875 C-18.54490817 4.64432011 -17.15232972 4.600706 -15.75976562 4.55664062 C-12.33995199 4.45014124 -8.92006237 4.34813077 -5.5 4.25 C-5.314375 3.2909375 -5.314375 3.2909375 -5.125 2.3125 C-4.91875 1.631875 -4.7125 0.95125 -4.5 0.25 C-2.5 -0.75 -2.5 -0.75 0 0 Z M-2.5 2.25 C-2.17 3.24 -1.84 4.23 -1.5 5.25 C-0.51 5.25 0.48 5.25 1.5 5.25 C1.17 4.26 0.84 3.27 0.5 2.25 C-0.49 2.25 -1.48 2.25 -2.5 2.25 Z M-34.5 7.25 C-34.5 8.9 -34.5 10.55 -34.5 12.25 C-33.18 12.25 -31.86 12.25 -30.5 12.25 C-30.5 10.93 -30.5 9.61 -30.5 8.25 C-31.82 7.92 -33.14 7.59 -34.5 7.25 Z M11.5 8.25 C11.355625 8.86875 11.21125 9.4875 11.0625 10.125 C10.5 12.25 10.5 12.25 9.5 14.25 C11.15 14.25 12.8 14.25 14.5 14.25 C14.5 12.27 14.5 10.29 14.5 8.25 C13.51 8.25 12.52 8.25 11.5 8.25 Z " fill="#000000" transform="translate(180.5,17.75)"/>
<path d="M0 0 C3.63 0 7.26 0 11 0 C10.67 1.65 10.34 3.3 10 5 C10.99 5 11.98 5 13 5 C13.33 3.35 13.66 1.7 14 0 C17.3 1.32 20.6 2.64 24 4 C23.34 5.98 22.68 7.96 22 10 C22.7425 9.46375 23.485 8.9275 24.25 8.375 C27 7 27 7 29.0625 7.5625 C31.26650228 9.1977275 33.1289649 10.99531953 35 13 C34.34 14.32 33.68 15.64 33 17 C33.66 17 34.32 17 35 17 C35.99 17 36.98 17 38 17 C41 23.625 41 23.625 41 27 C39.02 27.66 37.04 28.32 35 29 C35.495 27.515 35.495 27.515 36 26 C36.99 26 37.98 26 39 26 C38.01 22.535 38.01 22.535 37 19 C35.02 19.33 33.04 19.66 31 20 C30.7525 19.360625 30.505 18.72125 30.25 18.0625 C29.8375 17.381875 29.425 16.70125 29 16 C28.401875 15.855625 27.80375 15.71125 27.1875 15.5625 C23.73699081 14.67522621 22.17440051 12.73353207 20 10 C20.1875 7.1875 20.1875 7.1875 21 5 C18.525 4.01 18.525 4.01 16 3 C15.34 4.32 14.68 5.64 14 7 C11.525 6.505 11.525 6.505 9 6 C9 4.35 9 2.7 9 1 C6.69 1 4.38 1 2 1 C2 2.65 2 4.3 2 6 C-5.28571429 9.42857143 -5.28571429 9.42857143 -10 9 C-10 9.66 -10 10.32 -10 11 C-13.75 13 -13.75 13 -16 13 C-18.19305725 14.18637008 -18.19305725 14.18637008 -20 16 C-20 17.32 -20 18.64 -20 20 C-22.07553648 20.5534764 -23.84365964 21 -26 21 C-26.33 22.98 -26.66 24.96 -27 27 C-26.34 27.33 -25.68 27.66 -25 28 C-25 29.65 -25 31.3 -25 33 C-26.65 33 -28.3 33 -30 33 C-30 35.31 -30 37.62 -30 40 C-28.35 40 -26.7 40 -25 40 C-24.67 42.31 -24.34 44.62 -24 47 C-24.99 47.66 -25.98 48.32 -27 49 C-26.01 50.65 -25.02 52.3 -24 54 C-23.071875 53.505 -22.14375 53.01 -21.1875 52.5 C-18 51 -18 51 -15 51 C-15.33 52.32 -15.66 53.64 -16 55 C-15.34 55.33 -14.68 55.66 -14 56 C-10.94845581 59.05154419 -10.03730349 60.43112175 -9.75 64.8125 C-9.87375 66.3903125 -9.87375 66.3903125 -10 68 C-8.02 68.66 -6.04 69.32 -4 70 C-3.67 69.34 -3.34 68.68 -3 68 C-3 69.32 -3 70.64 -3 72 C-6.9492568 71.44894091 -10.34920174 70.61064629 -14 69 C-13.34 67.02 -12.68 65.04 -12 63 C-12.4125 63.515625 -12.825 64.03125 -13.25 64.5625 C-15 66 -15 66 -16.875 66 C-19.91943802 64.56732329 -21.79702234 62.50894678 -24 60 C-24 59.34 -24 58.68 -24 58 C-23.01 57.34 -22.02 56.68 -21 56 C-23.475 56.495 -23.475 56.495 -26 57 C-26.67154933 55.71086513 -27.33708859 54.41859796 -28 53.125 C-28.37125 52.40570313 -28.7425 51.68640625 -29.125 50.9453125 C-30 49 -30 49 -30 47 C-28.02 46.505 -28.02 46.505 -26 46 C-26 44.68 -26 43.36 -26 42 C-27.65 42 -29.3 42 -31 42 C-31 38.37 -31 34.74 -31 31 C-29.35 31 -27.7 31 -26 31 C-26 30.34 -26 29.68 -26 29 C-27.65 28.67 -29.3 28.34 -31 28 C-29.8905928 24.51329166 -28.73662334 21.22515763 -27 18 C-25.35 18.33 -23.7 18.66 -22 19 C-22 18.34 -22 17.68 -22 17 C-22.66 16.67 -23.32 16.34 -24 16 C-23.52794881 11.75153925 -21.11122478 9.73180712 -18 7 C-16 7 -16 7 -14.375 8.5 C-13.92125 8.995 -13.4675 9.49 -13 10 C-13.66 8.35 -14.32 6.7 -15 5 C-13.71086513 4.32845067 -12.41859796 3.66291141 -11.125 3 C-10.40570312 2.62875 -9.68640625 2.2575 -8.9453125 1.875 C-7 1 -7 1 -5 1 C-4.67 2.65 -4.34 4.3 -4 6 C-2.68 5.67 -1.36 5.34 0 5 C0 3.35 0 1.7 0 0 Z " fill="#212225" transform="translate(31,0)"/>
<path d="M0 0 C0.65742187 0.66128906 1.31484375 1.32257812 1.9921875 2.00390625 C6.53995453 5.02196983 10.96643425 4.67475147 16.3125 4.75 C17.33923828 4.77964844 18.36597656 4.80929688 19.42382812 4.83984375 C21.94929675 4.91032194 24.47385415 4.9631266 27 5 C27.495 6.485 27.495 6.485 28 8 C27.01 8 26.02 8 25 8 C25.495 14.435 25.495 14.435 26 21 C25.01 20.67 24.02 20.34 23 20 C22.505 16.535 22.505 16.535 22 13 C21.34 13 20.68 13 20 13 C19.67 13.99 19.34 14.98 19 16 C17 15 17 15 16 13 C16 14.32 16 15.64 16 17 C16.99 17.33 17.98 17.66 19 18 C19 18.66 19 19.32 19 20 C17.1875 19.8125 17.1875 19.8125 15 19 C13.1875 16.6875 13.1875 16.6875 12 14 C12.3125 11.6875 12.3125 11.6875 13 10 C14.65 9.67 16.3 9.34 18 9 C15.69 9 13.38 9 11 9 C11 12.96 11 16.92 11 21 C10.01 20.67 9.02 20.34 8 20 C8 19.01 8 18.02 8 17 C7.195625 16.855625 6.39125 16.71125 5.5625 16.5625 C3 16 3 16 2 15 C1.875 12.5 1.875 12.5 2 10 C2.33 9.67 2.66 9.34 3 9 C2.34 8.67 1.68 8.34 1 8 C1 8.78375 1 9.5675 1 10.375 C1 11.91666667 1 13.45833333 1 15 C1.66 15.495 2.32 15.99 3 16.5 C3.66 16.995 4.32 17.49 5 18 C5 18.66 5 19.32 5 20 C0.74822077 19.52758009 -1.29969203 17.15035929 -4 14 C-4 13.01 -4 12.02 -4 11 C-3.01 11 -2.02 11 -1 11 C-1 10.01 -1 9.02 -1 8 C-2.65 8 -4.3 8 -6 8 C-6 12.29 -6 16.58 -6 21 C-6.99 20.67 -7.98 20.34 -9 20 C-9 16.37 -9 12.74 -9 9 C-9.66 9 -10.32 9 -11 9 C-11 12.96 -11 16.92 -11 21 C-11.99 20.67 -12.98 20.34 -14 20 C-14 18.35 -14 16.7 -14 15 C-14.66 15 -15.32 15 -16 15 C-16.66 16.32 -17.32 17.64 -18 19 C-20.25 19.3125 -20.25 19.3125 -23 19 C-27 14.89189189 -27 14.89189189 -27 12 C-26.34 12 -25.68 12 -25 12 C-24.01 13.485 -24.01 13.485 -23 15 C-21.68 14.67 -20.36 14.34 -19 14 C-20.65 13.67 -22.3 13.34 -24 13 C-24 12.34 -24 11.68 -24 11 C-22.68 10.67 -21.36 10.34 -20 10 C-20 9.34 -20 8.68 -20 8 C-21.65 8.33 -23.3 8.66 -25 9 C-25 8.01 -25 7.02 -25 6 C-22.625 5.375 -22.625 5.375 -20 5 C-19.34 5.66 -18.68 6.32 -18 7 C-17.67 6.34 -17.34 5.68 -17 5 C-14.36 5 -11.72 5 -9 5 C-8.87625 4.195625 -8.7525 3.39125 -8.625 2.5625 C-8.315625 1.2940625 -8.315625 1.2940625 -8 0 C-5.0233079 -1.48834605 -3.18307201 -0.8113713 0 0 Z M-6 2 C-6.33 2.99 -6.66 3.98 -7 5 C-4.03 5 -1.06 5 2 5 C-0.61210269 1.7317186 -0.61210269 1.7317186 -3.6875 1.8125 C-4.450625 1.874375 -5.21375 1.93625 -6 2 Z M-17 8 C-17.33 9.32 -17.66 10.64 -18 12 C-16.68 12 -15.36 12 -14 12 C-14 10.68 -14 9.36 -14 8 C-14.99 8 -15.98 8 -17 8 Z M4 12 C4 12.66 4 13.32 4 14 C5.32 14 6.64 14 8 14 C8 13.01 8 12.02 8 11 C5.9254644 10.8509288 5.9254644 10.8509288 4 12 Z " fill="#000000" transform="translate(106,18)"/>
<path d="M0 0 C3.08131087 0.81749064 4.77899356 1.61682073 7.0625 3.8125 C7.0625 4.4725 7.0625 5.1325 7.0625 5.8125 C14.9825 5.8125 22.9025 5.8125 31.0625 5.8125 C31.5575 7.2975 31.5575 7.2975 32.0625 8.8125 C31.0725 8.8125 30.0825 8.8125 29.0625 8.8125 C29.0625 10.1325 29.0625 11.4525 29.0625 12.8125 C27.0825 13.4725 25.1025 14.1325 23.0625 14.8125 C24.0525 15.8025 25.0425 16.7925 26.0625 17.8125 C26.3925 16.4925 26.7225 15.1725 27.0625 13.8125 C28.3825 14.1425 29.7025 14.4725 31.0625 14.8125 C31.18625 15.72 31.31 16.6275 31.4375 17.5625 C31.8876528 20.72457158 31.8876528 20.72457158 33.1875 23 C34.0625 24.8125 34.0625 24.8125 33.0625 27.8125 C32.485 27.35875 31.9075 26.905 31.3125 26.4375 C29.2824667 24.97136484 27.32710157 23.86392216 25.0625 22.8125 C25.0625 22.1525 25.0625 21.4925 25.0625 20.8125 C26.3825 20.4825 27.7025 20.1525 29.0625 19.8125 C28.134375 19.874375 27.20625 19.93625 26.25 20 C23.0625 19.8125 23.0625 19.8125 21.1875 18.625 C19.71468861 16.25213721 19.84026806 14.55336056 20.0625 11.8125 C21.3825 11.1525 22.7025 10.4925 24.0625 9.8125 C22.0825 9.4825 20.1025 9.1525 18.0625 8.8125 C18.0625 13.1025 18.0625 17.3925 18.0625 21.8125 C17.0725 21.4825 16.0825 21.1525 15.0625 20.8125 C14.5675 19.3275 14.5675 19.3275 14.0625 17.8125 C11.55802484 16.59380071 11.55802484 16.59380071 9.0625 15.8125 C8.7325 13.5025 8.4025 11.1925 8.0625 8.8125 C7.0725 8.8125 6.0825 8.8125 5.0625 8.8125 C4.918125 9.781875 4.77375 10.75125 4.625 11.75 C4.0625 14.8125 4.0625 14.8125 3.0625 15.8125 C4.3825 16.4725 5.7025 17.1325 7.0625 17.8125 C7.0625 18.8025 7.0625 19.7925 7.0625 20.8125 C3.92743389 20.47660006 3.037251 19.78584828 0.8125 17.4375 C-0.9375 14.8125 -0.9375 14.8125 -0.9375 11.8125 C0.0525 11.8125 1.0425 11.8125 2.0625 11.8125 C2.0625 10.8225 2.0625 9.8325 2.0625 8.8125 C0.4125 9.1425 -1.2375 9.4725 -2.9375 9.8125 C-2.9375 13.7725 -2.9375 17.7325 -2.9375 21.8125 C-3.9275 21.4825 -4.9175 21.1525 -5.9375 20.8125 C-5.9375 16.8525 -5.9375 12.8925 -5.9375 8.8125 C-6.9275 8.8125 -7.9175 8.8125 -8.9375 8.8125 C-8.9375 13.1025 -8.9375 17.3925 -8.9375 21.8125 C-9.9275 21.4825 -10.9175 21.1525 -11.9375 20.8125 C-11.9375 19.8225 -11.9375 18.8325 -11.9375 17.8125 C-12.55625 17.68875 -13.175 17.565 -13.8125 17.4375 C-15.9375 16.8125 -15.9375 16.8125 -17.9375 14.8125 C-18.0625 11.6875 -18.0625 11.6875 -17.9375 8.8125 C-18.9275 8.4825 -19.9175 8.1525 -20.9375 7.8125 C-20.9375 7.1525 -20.9375 6.4925 -20.9375 5.8125 C-16.3175 5.8125 -11.6975 5.8125 -6.9375 5.8125 C-6.6075 4.4925 -6.2775 3.1725 -5.9375 1.8125 C-2.9375 -0.1875 -2.9375 -0.1875 0 0 Z M-2.9375 2.8125 C-3.2675 3.8025 -3.5975 4.7925 -3.9375 5.8125 C-0.9675 5.8125 2.0025 5.8125 5.0625 5.8125 C2.45039731 2.5442186 2.45039731 2.5442186 -0.625 2.625 C-1.388125 2.686875 -2.15125 2.74875 -2.9375 2.8125 Z M-15.9375 8.8125 C-15.9375 10.4625 -15.9375 12.1125 -15.9375 13.8125 C-14.6175 14.1425 -13.2975 14.4725 -11.9375 14.8125 C-11.6075 12.8325 -11.2775 10.8525 -10.9375 8.8125 C-12.5875 8.8125 -14.2375 8.8125 -15.9375 8.8125 Z M12.0625 8.8125 C13.0525 9.8025 14.0425 10.7925 15.0625 11.8125 C15.0625 10.8225 15.0625 9.8325 15.0625 8.8125 C14.0725 8.8125 13.0825 8.8125 12.0625 8.8125 Z M11.0625 10.8125 C11.0625 12.1325 11.0625 13.4525 11.0625 14.8125 C12.0525 14.4825 13.0425 14.1525 14.0625 13.8125 C13.0725 12.8225 12.0825 11.8325 11.0625 10.8125 Z " fill="#000000" transform="translate(344.9375,17.1875)"/>
<path d="M0 0 C1.175625 0.9590625 1.175625 0.9590625 2.375 1.9375 C5.91480135 4.71877249 8.56543738 5.22571129 13 6 C14.34353414 5.71050922 15.67965718 5.38155437 17 5 C22 5 27 5 32 5 C32.495 6.485 32.495 6.485 33 8 C32.01 8 31.02 8 30 8 C30.495 14.435 30.495 14.435 31 21 C30.01 20.67 29.02 20.34 28 20 C28 16.04 28 12.08 28 8 C27.01 8 26.02 8 25 8 C25 12.29 25 16.58 25 21 C24.01 20.67 23.02 20.34 22 20 C22 18.02 22 16.04 22 14 C21.67 14.33 21.34 14.66 21 15 C21.25195908 16.53202706 21.57596777 18.05257128 21.9375 19.5625 C22.13214844 20.38878906 22.32679688 21.21507813 22.52734375 22.06640625 C22.76130859 23.02353516 22.76130859 23.02353516 23 24 C21.68 23.34 20.36 22.68 19 22 C19 21.34 19 20.68 19 20 C18.21625 19.87625 17.4325 19.7525 16.625 19.625 C14 19 14 19 12 17 C12.29259485 14.99363529 12.62633887 12.99285937 13 11 C12.67 10.34 12.34 9.68 12 9 C11.01 8.67 10.02 8.34 9 8 C9.33 12.29 9.66 16.58 10 21 C9.01 20.67 8.02 20.34 7 20 C7 16.04 7 12.08 7 8 C6.34 8 5.68 8 5 8 C5.04125 8.763125 5.0825 9.52625 5.125 10.3125 C5 13 5 13 3 16 C3.99 16.66 4.98 17.32 6 18 C5.67 18.99 5.34 19.98 5 21 C1.125 19.25 1.125 19.25 0 17 C-2.01669827 15.86649466 -2.01669827 15.86649466 -4 15 C-3 12 -3 12 -2 11 C-2.33 10.01 -2.66 9.02 -3 8 C-3.99 8 -4.98 8 -6 8 C-6 12.29 -6 16.58 -6 21 C-6.99 20.67 -7.98 20.34 -9 20 C-9 16.37 -9 12.74 -9 9 C-9.66 8.67 -10.32 8.34 -11 8 C-11 7.01 -11 6.02 -11 5 C-10.34 5 -9.68 5 -9 5 C-8.87625 4.195625 -8.7525 3.39125 -8.625 2.5625 C-8.41875 1.716875 -8.2125 0.87125 -8 0 C-5.0233079 -1.48834605 -3.18307201 -0.8113713 0 0 Z M-7 3 C-7 3.66 -7 4.32 -7 5 C-3.7 5.33 -0.4 5.66 3 6 C3 5.34 3 4.68 3 4 C-0.45464438 2.0259175 -3.19574988 1.09787494 -7 3 Z M0 8 C0.33 8.99 0.66 9.98 1 11 C1.66 11 2.32 11 3 11 C2.67 10.01 2.34 9.02 2 8 C1.34 8 0.68 8 0 8 Z M15 8 C15 8.66 15 9.32 15 10 C15.66 10 16.32 10 17 10 C17 9.34 17 8.68 17 8 C16.34 8 15.68 8 15 8 Z M20 8 C19.67 8.99 19.34 9.98 19 11 C19.99 11 20.98 11 22 11 C22 10.01 22 9.02 22 8 C21.34 8 20.68 8 20 8 Z M16 13 C15.01 14.485 15.01 14.485 14 16 C14.99 16.33 15.98 16.66 17 17 C17.66 15.68 18.32 14.36 19 13 C18.01 13 17.02 13 16 13 Z " fill="#000000" transform="translate(288,18)"/>
<path d="M0 0 C0.495 0.99 0.495 0.99 1 2 C2.98 2 4.96 2 7 2 C7 5.63 7 9.26 7 13 C5.02 13 3.04 13 1 13 C1 13.99 1 14.98 1 16 C2.32 16 3.64 16 5 16 C4.44894091 19.9492568 3.61064629 23.34920174 2 27 C0.02 26.67 -1.96 26.34 -4 26 C-3.01 26.99 -2.02 27.98 -1 29 C-2.44126786 32.36295835 -4.20592655 34.62927102 -7 37 C-10 37 -10 37 -11.6875 35.5 C-12.120625 35.005 -12.55375 34.51 -13 34 C-12.34 34.99 -11.68 35.98 -11 37 C-11 37.99 -11 38.98 -11 40 C-17.625 43 -17.625 43 -21 43 C-21.33 41.68 -21.66 40.36 -22 39 C-23.32 39 -24.64 39 -26 39 C-26 40.65 -26 42.3 -26 44 C-29.63 44 -33.26 44 -37 44 C-36.67 42.35 -36.34 40.7 -36 39 C-36.99 38.67 -37.98 38.34 -39 38 C-37.68 38 -36.36 38 -35 38 C-35 39.65 -35 41.3 -35 43 C-32.69 43 -30.38 43 -28 43 C-28 41.35 -28 39.7 -28 38 C-27.2575 37.7525 -26.515 37.505 -25.75 37.25 C-22.96742941 36.18843035 -22.96742941 36.18843035 -21.25 34.1875 C-18.4530655 31.46825812 -15.41744445 30.03529224 -11.92578125 28.34375 C-9.81862286 27.15025481 -9.81862286 27.15025481 -9.23046875 24.84375 C-9.15441406 24.2353125 -9.07835938 23.626875 -9 23 C-8.34 23 -7.68 23 -7 23 C-6.7525 22.05125 -6.505 21.1025 -6.25 20.125 C-4.82576013 16.56440032 -4.28284113 16.48257341 -1 15 C-0.19471111 12.94999129 -0.19471111 12.94999129 0 11 C1.65 11 3.3 11 5 11 C5 8.69 5 6.38 5 4 C3.35 4 1.7 4 0 4 C0 2.68 0 1.36 0 0 Z " fill="#766031" transform="translate(67,29)"/>
<path d="M0 0 C1.98 0 3.96 0 6 0 C6 1.65 6 3.3 6 5 C6.99 5 7.98 5 9 5 C9 3.35 9 1.7 9 0 C9.66 0 10.32 0 11 0 C11 1.98 11 3.96 11 6 C11.99 6 12.98 6 14 6 C14 6.99 14 7.98 14 9 C9.25 8.125 9.25 8.125 7 7 C7 7.66 7 8.32 7 9 C6.34 9 5.68 9 5 9 C5.33 9.99 5.66 10.98 6 12 C9.51190809 13.22969878 9.51190809 13.22969878 13 14 C12.01 14.495 12.01 14.495 11 15 C9.86649466 17.01669827 9.86649466 17.01669827 9 19 C8.27554688 18.94199219 7.55109375 18.88398437 6.8046875 18.82421875 C0.05096256 18.39691129 0.05096256 18.39691129 -5.6875 21.5 C-6.450625 22.325 -7.21375 23.15 -8 24 C-12.90153173 17.92560175 -12.90153173 17.92560175 -13.3125 14.0625 C-13.209375 13.381875 -13.10625 12.70125 -13 12 C-12.01 12 -11.02 12 -10 12 C-10 11.01 -10 10.02 -10 9 C-11.32 9 -12.64 9 -14 9 C-14 7.68 -14 6.36 -14 5 C-10.30458414 4.04975021 -7.69541586 4.04975021 -4 5 C-3.67 4.34 -3.34 3.68 -3 3 C-2.67 3.33 -2.34 3.66 -2 4 C-0.33382885 4.04063832 1.33388095 4.042721 3 4 C3.33 3.34 3.66 2.68 4 2 C2.68 2.33 1.36 2.66 0 3 C0 2.01 0 1.02 0 0 Z " fill="#F6F8CB" transform="translate(35,26)"/>
<path d="M0 0 C2.31 0 4.62 0 7 0 C7 1.65 7 3.3 7 5 C8.65 5.33 10.3 5.66 12 6 C12.33 4.35 12.66 2.7 13 1 C16.465 2.485 16.465 2.485 20 4 C19.67 5.65 19.34 7.3 19 9 C19.66 9.45375 20.32 9.9075 21 10.375 C21.66 10.91125 22.32 11.4475 23 12 C23 12.66 23 13.32 23 14 C23.61875 14.103125 24.2375 14.20625 24.875 14.3125 C27 15 27 15 29 18 C32.08365871 18.2502157 32.08365871 18.2502157 35 18 C36.4606285 20.64738916 37 21.89448334 37 25 C36.01 25.33 35.02 25.66 34 26 C34 27.98 34 29.96 34 32 C35.65 32 37.3 32 39 32 C39 34.31 39 36.62 39 39 C37.35 39 35.7 39 34 39 C33.67 40.65 33.34 42.3 33 44 C31.02 44.495 31.02 44.495 29 45 C29.33 38.73 29.66 32.46 30 26 C28.68 25.67 27.36 25.34 26 25 C26.66 24.67 27.32 24.34 28 24 C28 23.34 28 22.68 28 22 C27.34 22 26.68 22 26 22 C26 21.34 26 20.68 26 20 C25.34 20 24.68 20 24 20 C23.773125 19.21625 23.54625 18.4325 23.3125 17.625 C21.63644908 14.27289816 20.43728896 14.26298081 17 13 C15.43279393 12.15449891 13.87035302 11.30011283 12.3125 10.4375 C7.23551578 7.84174867 2.65668405 7.13239048 -3 7 C-2.34 6.34 -1.68 5.68 -1 5 C-0.35232207 2.42938689 -0.35232207 2.42938689 0 0 Z " fill="#F0B840" transform="translate(33,1)"/>
<path d="M0 0 C0.268125 0.639375 0.53625 1.27875 0.8125 1.9375 C1.88667752 4.33131686 1.88667752 4.33131686 5 5 C5.33 6.98 5.66 8.96 6 11 C6 8.69 6 6.38 6 4 C6.99 4.33 7.98 4.66 9 5 C9 7.31 9 9.62 9 12 C9.433125 10.865625 9.86625 9.73125 10.3125 8.5625 C10.869375 7.386875 11.42625 6.21125 12 5 C12.99 4.67 13.98 4.34 15 4 C15.99 4.66 16.98 5.32 18 6 C18 6.66 18 7.32 18 8 C15.525 7.505 15.525 7.505 13 7 C13.66 8.32 14.32 9.64 15 11 C17.05990478 9.70532323 17.05990478 9.70532323 19 8 C19 7.01 19 6.02 19 5 C22.75 3.875 22.75 3.875 25 5 C25.4140625 7.06640625 25.4140625 7.06640625 25.625 9.5625 C25.69976562 10.38878906 25.77453125 11.21507812 25.8515625 12.06640625 C25.90054688 12.70449219 25.94953125 13.34257813 26 14 C22.66666667 14 19.33333333 14 16 14 C14.40624761 14.01138895 12.81249787 14.02315147 11.21875 14.03515625 C9.31250092 14.04446151 7.40625087 14.05356844 5.5 14.0625 C4.05560547 14.07506836 4.05560547 14.07506836 2.58203125 14.08789062 C1.19564453 14.09272461 1.19564453 14.09272461 -0.21875 14.09765625 C-1.4862207 14.10551147 -1.4862207 14.10551147 -2.77929688 14.11352539 C-5 14 -5 14 -8 13 C-8.33 13.33 -8.66 13.66 -9 14 C-12.00331018 14.14193337 -14.99217134 14.04236378 -18 14 C-18 9.71 -18 5.42 -18 1 C-14.7 1 -11.4 1 -8 1 C-8.33 3.97 -8.66 6.94 -9 10 C-8.34 10 -7.68 10 -7 10 C-6.896875 9.21625 -6.79375 8.4325 -6.6875 7.625 C-6 5 -6 5 -3 3 C-3 2.34 -3 1.68 -3 1 C-2.01 0.67 -1.02 0.34 0 0 Z M-14 3 C-14 3.99 -14 4.98 -14 6 C-12.35 5.67 -10.7 5.34 -9 5 C-9.33 4.34 -9.66 3.68 -10 3 C-11.32 3 -12.64 3 -14 3 Z M-5 7 C-4.67 8.65 -4.34 10.3 -4 12 C-3.34 12 -2.68 12 -2 12 C-2 10.35 -2 8.7 -2 7 C-2.99 7 -3.98 7 -5 7 Z M1 7 C2 11 2 11 2 11 Z M-14 8 C-14 9.32 -14 10.64 -14 12 C-12.35 11.67 -10.7 11.34 -9 11 C-9.66 10.01 -10.32 9.02 -11 8 C-11.99 8 -12.98 8 -14 8 Z M21 10 C21.33 10.66 21.66 11.32 22 12 C22.33 11.34 22.66 10.68 23 10 C22.34 10 21.68 10 21 10 Z " fill="#000000" transform="translate(325,42)"/>
<path d="M0 0 C0.99 0 1.98 0 3 0 C3 0.66 3 1.32 3 2 C3.6290625 2.06316406 4.258125 2.12632813 4.90625 2.19140625 C11.14019184 3.08331058 14.88684104 4.90443531 19.6015625 9.05078125 C21.36553408 11.50950141 21.27512224 13.03988853 21 16 C20.01 16.495 20.01 16.495 19 17 C19 15.35 19 13.7 19 12 C17.89140625 12.08378906 16.7828125 12.16757812 15.640625 12.25390625 C14.17710672 12.35710305 12.71356369 12.45994926 11.25 12.5625 C10.52039063 12.61857422 9.79078125 12.67464844 9.0390625 12.73242188 C5.45046349 12.97709908 2.44972775 12.99666259 -1 12 C-1 12.66 -1 13.32 -1 14 C-1.66 14 -2.32 14 -3 14 C-3 13.34 -3 12.68 -3 12 C-3.99 12 -4.98 12 -6 12 C-6.33 13.32 -6.66 14.64 -7 16 C-7.33 14.68 -7.66 13.36 -8 12 C-8.99 12.33 -9.98 12.66 -11 13 C-12.71567661 16.50294871 -12.71567661 16.50294871 -14 20 C-15.45775621 15.62673137 -14.03823363 12.82003364 -12.4453125 8.609375 C-10.51193894 5.11885193 -8.52570708 3.95570863 -4.90234375 2.48828125 C-3 2 -3 2 0 2 C0 1.34 0 0.68 0 0 Z " fill="#F9E243" transform="translate(34,11)"/>
<path d="M0 0 C4.81826218 0.84530916 6.34029694 1.93125503 9.5625 5.625 C10.47296162 10.17730808 9.89611931 12.05159182 7.5625 16.0625 C4.01348039 19.09395425 4.01348039 19.09395425 0.5625 19.375 C-2.94945592 19.08898844 -3.56149252 18.51908972 -6.4375 16.0625 C-8.76293335 12.06566142 -9.26313373 10.16598553 -8.4375 5.625 C-5.86890902 1.96670376 -4.41498801 0.80272509 0 0 Z " fill="#154D72" transform="translate(36.4375,43.375)"/>
<path d="M0 0 C0.99 0.33 1.98 0.66 3 1 C2.67 1.99 2.34 2.98 2 4 C3.32 4 4.64 4 6 4 C6.03738281 4.65226562 6.07476562 5.30453125 6.11328125 5.9765625 C6.51887629 11.36859064 7.27558065 15.23226613 10 20 C10.6875 22.375 10.6875 22.375 11 24 C11.66 24 12.32 24 13 24 C13 24.66 13 25.32 13 26 C11.35 26 9.7 26 8 26 C8 25.34 8 24.68 8 24 C4.85262818 24.69941596 1.97411124 25.76078698 -1 27 C-1.99 24.69 -2.98 22.38 -4 20 C-2.68 19.67 -1.36 19.34 0 19 C-0.33 16.69 -0.66 14.38 -1 12 C-2.65 12 -4.3 12 -6 12 C-6 9.69 -6 7.38 -6 5 C-4.35 4.67 -2.7 4.34 -1 4 C-0.67 2.68 -0.34 1.36 0 0 Z " fill="#EEB23B" transform="translate(7,28)"/>
<path d="M0 0 C0.495 6.93 0.495 6.93 1 14 C-10 14 -21 14 -32 14 C-32.50403768 12.70990357 -33.00309926 11.41786211 -33.5 10.125 C-33.7784375 9.40570313 -34.056875 8.68640625 -34.34375 7.9453125 C-35 6 -35 6 -35 4 C-33.68 4.33 -32.36 4.66 -31 5 C-31 7.31 -31 9.62 -31 12 C-30.34 12 -29.68 12 -29 12 C-29.33 9.36 -29.66 6.72 -30 4 C-29.16855469 4.0721875 -28.33710938 4.144375 -27.48046875 4.21875 C-26.39378906 4.3115625 -25.30710938 4.404375 -24.1875 4.5 C-23.10855469 4.5928125 -22.02960938 4.685625 -20.91796875 4.78125 C-17.51275771 5.03652687 -15.26435765 5.08811922 -12 4 C-9.6593935 4.27769908 -7.32375692 4.60539977 -5 5 C-5 7.31 -5 9.62 -5 12 C-4.34 11.67 -3.68 11.34 -3 11 C-2.88679144 5.91696314 -2.88679144 5.91696314 -4 1 C-1 0 -1 0 0 0 Z M-26 7 C-26 8.65 -26 10.3 -26 12 C-25.34 11.67 -24.68 11.34 -24 11 C-24 9.68 -24 8.36 -24 7 C-24.66 7 -25.32 7 -26 7 Z M-22 7 C-22 8.65 -22 10.3 -22 12 C-21.34 12 -20.68 12 -20 12 C-20 10.35 -20 8.7 -20 7 C-20.66 7 -21.32 7 -22 7 Z M-14 7 C-13.67 8.65 -13.34 10.3 -13 12 C-11.68 11.34 -10.36 10.68 -9 10 C-9 10.66 -9 11.32 -9 12 C-8.34 12 -7.68 12 -7 12 C-7 10.35 -7 8.7 -7 7 C-9.31 7 -11.62 7 -14 7 Z " fill="#000000" transform="translate(202,42)"/>
<path d="M0 0 C0.99 0 1.98 0 3 0 C3.33 0.66 3.66 1.32 4 2 C4.33 1.34 4.66 0.68 5 0 C5.99 0 6.98 0 8 0 C8 0.66 8 1.32 8 2 C8.66 2 9.32 2 10 2 C10 1.34 10 0.68 10 0 C16.6 0 23.2 0 30 0 C29.67 1.65 29.34 3.3 29 5 C29.33 5.99 29.66 6.98 30 8 C27.69 8 25.38 8 23 8 C23 6.35 23 4.7 23 3 C22.34 3 21.68 3 21 3 C21 4.65 21 6.3 21 8 C20.01 8 19.02 8 18 8 C18 6.35 18 4.7 18 3 C16.02 3 14.04 3 12 3 C12.33 3.66 12.66 4.32 13 5 C13.99 5 14.98 5 16 5 C15.67 5.99 15.34 6.98 15 8 C9.33333333 8 3.66666667 8 -2 8 C-1.125 1.125 -1.125 1.125 0 0 Z " fill="#8A3320" transform="translate(23,23)"/>
<path d="M0 0 C0.33 0 0.66 0 1 0 C1 1.65 1 3.3 1 5 C1.66 5 2.32 5 3 5 C3.39391518 9.46437201 2.44437101 12.25196445 0 16 C-2.9375 17.625 -2.9375 17.625 -6 19 C-8.31418291 21.06167261 -8.31418291 21.06167261 -10 23 C-10.03738281 22.39671875 -10.07476562 21.7934375 -10.11328125 21.171875 C-10.56253341 15.00632228 -10.56253341 15.00632228 -14 10 C-8.46153846 4.15384615 -8.46153846 4.15384615 -5 3 C-4.01 3.33 -3.02 3.66 -2 4 C-2.33 4.66 -2.66 5.32 -3 6 C-2.01 6 -1.02 6 0 6 C0 4.02 0 2.04 0 0 Z " fill="#F6E240" transform="translate(56,35)"/>
<path d="M0 0 C2.4375 0.75 2.4375 0.75 5 2 C5.8125 4.125 5.8125 4.125 6 6 C8.31 6.66 10.62 7.32 13 8 C12.01 8.495 12.01 8.495 11 9 C9.86649466 11.01669827 9.86649466 11.01669827 9 13 C8.27554688 12.94199219 7.55109375 12.88398437 6.8046875 12.82421875 C0.05096256 12.39691129 0.05096256 12.39691129 -5.6875 15.5 C-6.450625 16.325 -7.21375 17.15 -8 18 C-8.84795951 16.9491359 -9.67780256 15.88364055 -10.5 14.8125 C-10.9640625 14.22082031 -11.428125 13.62914062 -11.90625 13.01953125 C-13 11 -13 11 -13 6 C-8.38 6 -3.76 6 1 6 C1.33 6.99 1.66 7.98 2 9 C2.33 7.02 2.66 5.04 3 3 C1.68 2.67 0.36 2.34 -1 2 C-0.67 1.34 -0.34 0.68 0 0 Z " fill="#FAF8C6" transform="translate(35,32)"/>
<path d="M0 0 C0 3.96 0 7.92 0 12 C0.66 12 1.32 12 2 12 C1.67 8.37 1.34 4.74 1 1 C2.32 0.67 3.64 0.34 5 0 C5.495 6.93 5.495 6.93 6 14 C1.05 14 -3.9 14 -9 14 C-9 13.01 -9 12.02 -9 11 C-10.32 11 -11.64 11 -13 11 C-12.67 11.99 -12.34 12.98 -12 14 C-13.65 14 -15.3 14 -17 14 C-15.31326082 9.50202887 -13.18326108 5.27113698 -11 1 C-10.34 1 -9.68 1 -9 1 C-8.73445313 1.71027344 -8.46890625 2.42054687 -8.1953125 3.15234375 C-7.84210938 4.07144531 -7.48890625 4.99054687 -7.125 5.9375 C-6.60292969 7.31228516 -6.60292969 7.31228516 -6.0703125 8.71484375 C-5.2180914 11.14941056 -5.2180914 11.14941056 -3 12 C-3.33 8.37 -3.66 4.74 -4 1 C-1 0 -1 0 0 0 Z M-11 6 C-11.33 6.66 -11.66 7.32 -12 8 C-11.34 8 -10.68 8 -10 8 C-10.33 7.34 -10.66 6.68 -11 6 Z " fill="#000000" transform="translate(96,42)"/>
<path d="M0 0 C0 1.32 0 2.64 0 4 C1.32 4.66 2.64 5.32 4 6 C4 7.98 4 9.96 4 12 C4.66 12 5.32 12 6 12 C5.67 9.69 5.34 7.38 5 5 C7.33294775 4.95758277 9.66702567 4.95907063 12 5 C13 6 13 6 13.0625 9.0625 C13.041875 10.031875 13.02125 11.00125 13 12 C13.66 12 14.32 12 15 12 C14.67 9.69 14.34 7.38 14 5 C15.32 4.67 16.64 4.34 18 4 C18.33 7.3 18.66 10.6 19 14 C11.41 14 3.82 14 -4 14 C-4 9.71 -4 5.42 -4 1 C-2 0 -2 0 0 0 Z M0 7 C-0.33 8.65 -0.66 10.3 -1 12 C-0.01 12 0.98 12 2 12 C2 10.35 2 8.7 2 7 C1.34 7 0.68 7 0 7 Z M9 7 C8.67 8.65 8.34 10.3 8 12 C8.99 11.67 9.98 11.34 11 11 C11 9.68 11 8.36 11 7 C10.34 7 9.68 7 9 7 Z " fill="#000000" transform="translate(263,42)"/>
<path d="M0 0 C0 3.96 0 7.92 0 12 C0.66 12 1.32 12 2 12 C1.67 9.69 1.34 7.38 1 5 C2.32 4.67 3.64 4.34 5 4 C5.33 5.98 5.66 7.96 6 10 C6.33 8.35 6.66 6.7 7 5 C7.99 4.67 8.98 4.34 10 4 C10.99 4.66 11.98 5.32 13 6 C13.1875 8.625 13.1875 8.625 13 11 C13.66 11 14.32 11 15 11 C15 11.66 15 12.32 15 13 C10.61040324 14.07799528 6.30699277 14.18343259 1.8125 14.1875 C0.72678711 14.20586914 0.72678711 14.20586914 -0.38085938 14.22460938 C-2.25539471 14.22984064 -4.1294635 14.12248796 -6 14 C-6.66 13.34 -7.32 12.68 -8 12 C-7.9375 9.0625 -7.9375 9.0625 -7 6 C-4.4375 4.125 -4.4375 4.125 -2 3 C-2.66 3 -3.32 3 -4 3 C-4 2.34 -4 1.68 -4 1 C-1 0 -1 0 0 0 Z M-5 7 C-4.67 8.65 -4.34 10.3 -4 12 C-3.34 11.67 -2.68 11.34 -2 11 C-2 9.68 -2 8.36 -2 7 C-2.99 7 -3.98 7 -5 7 Z M9 10 C8.67 10.66 8.34 11.32 8 12 C8.66 12 9.32 12 10 12 C9.67 11.34 9.34 10.68 9 10 Z " fill="#000000" transform="translate(129,42)"/>
<path d="M0 0 C0 0.66 0 1.32 0 2 C2.475 2.495 2.475 2.495 5 3 C2.70689836 5.47006125 0.26659279 7.24013545 -2.5625 9.0625 C-4.96871321 10.61527798 -6.97124564 11.97124564 -9 14 C-11.96875 14.046875 -11.96875 14.046875 -15.5 13.75 C-16.6653125 13.66234375 -17.830625 13.5746875 -19.03125 13.484375 C-22 13 -22 13 -24 11 C-24 10.34 -24 9.68 -24 9 C-24.31802943 7.33034549 -24.64984951 5.66321482 -25 4 C-24.34 4.825 -23.68 5.65 -23 6.5 C-19.62001785 9.3166518 -18.1687011 9.76334116 -13.91796875 9.4921875 C-10.6698218 8.65865081 -9.10447412 6.50261787 -7 4 C-2.35135135 0 -2.35135135 0 0 0 Z " fill="#F3CF51" transform="translate(53,52)"/>
<path d="M0 0 C1.32 0 2.64 0 4 0 C3.67 1.32 3.34 2.64 3 4 C3.66 4.33 4.32 4.66 5 5 C8.05154419 8.05154419 8.96269651 9.43112175 9.25 13.8125 C9.1675 14.864375 9.085 15.91625 9 17 C10.98 17.66 12.96 18.32 15 19 C15.33 18.34 15.66 17.68 16 17 C16 18.32 16 19.64 16 21 C12.0507432 20.44894091 8.65079826 19.61064629 5 18 C5.66 16.02 6.32 14.04 7 12 C6.5875 12.515625 6.175 13.03125 5.75 13.5625 C4 15 4 15 2.125 15 C-0.91943802 13.56732329 -2.79702234 11.50894678 -5 9 C-5 8.34 -5 7.68 -5 7 C-4.01 6.34 -3.02 5.68 -2 5 C-0.79549696 2.44816596 -0.79549696 2.44816596 0 0 Z " fill="#F1AE33" transform="translate(12,51)"/>
<path d="M0 0 C0 3.96 0 7.92 0 12 C0.66 12 1.32 12 2 12 C2 12.66 2 13.32 2 14 C0.04174127 14.02694851 -1.91662226 14.04637218 -3.875 14.0625 C-4.96554687 14.07410156 -6.05609375 14.08570313 -7.1796875 14.09765625 C-10 14 -10 14 -12 13 C-12.825 13.185625 -13.65 13.37125 -14.5 13.5625 C-15.325 13.706875 -16.15 13.85125 -17 14 C-19 12 -19 12 -19.125 8.875 C-19.08375 7.92625 -19.0425 6.9775 -19 6 C-16.625 4.9375 -16.625 4.9375 -14 4 C-13.34 4.33 -12.68 4.66 -12 5 C-12 5.99 -12 6.98 -12 8 C-13.65 7.67 -15.3 7.34 -17 7 C-16.34 8.32 -15.68 9.64 -15 11 C-13.35 10.34 -11.7 9.68 -10 9 C-10 7.68 -10 6.36 -10 5 C-9.01 4.67 -8.02 4.34 -7 4 C-4 6 -4 6 -3.3125 8.625 C-3.209375 9.40875 -3.10625 10.1925 -3 11 C-2.67 8.36 -2.34 5.72 -2 3 C-2.66 3 -3.32 3 -4 3 C-4 2.34 -4 1.68 -4 1 C-1 0 -1 0 0 0 Z M-9 10 C-9 10.66 -9 11.32 -9 12 C-8.34 12 -7.68 12 -7 12 C-7 11.34 -7 10.68 -7 10 C-7.66 10 -8.32 10 -9 10 Z " fill="#000000" transform="translate(301,42)"/>
<path d="M0 0 C0 0.66 0 1.32 0 2 C-1.62626404 3.38232443 -3.2925002 4.71937515 -5 6 C-4.34 7.98 -3.68 9.96 -3 12 C-5 14 -5 14 -7.625 14.125 C-8.40875 14.08375 -9.1925 14.0425 -10 14 C-10.33 15.98 -10.66 17.96 -11 20 C-10.34 20.33 -9.68 20.66 -9 21 C-9 22.65 -9 24.3 -9 26 C-10.65 26 -12.3 26 -14 26 C-14 28.31 -14 30.62 -14 33 C-12.35 33 -10.7 33 -9 33 C-8.67 35.31 -8.34 37.62 -8 40 C-8.99 40.66 -9.98 41.32 -11 42 C-10.01 43.65 -9.02 45.3 -8 47 C-6.02 46.505 -6.02 46.505 -4 46 C-4 46.66 -4 47.32 -4 48 C-5.98 48.66 -7.96 49.32 -10 50 C-10.67154933 48.71086513 -11.33708859 47.41859796 -12 46.125 C-12.37125 45.40570313 -12.7425 44.68640625 -13.125 43.9453125 C-14 42 -14 42 -14 40 C-12.02 39.505 -12.02 39.505 -10 39 C-10 37.68 -10 36.36 -10 35 C-11.65 35 -13.3 35 -15 35 C-15 31.37 -15 27.74 -15 24 C-13.35 24 -11.7 24 -10 24 C-10 23.34 -10 22.68 -10 22 C-11.65 21.67 -13.3 21.34 -15 21 C-13.8905928 17.51329166 -12.73662334 14.22515763 -11 11 C-9.35 11.33 -7.7 11.66 -6 12 C-6 11.34 -6 10.68 -6 10 C-6.66 9.67 -7.32 9.34 -8 9 C-7.53918323 4.85264908 -4.48412936 0 0 0 Z " fill="#252426" transform="translate(15,7)"/>
<path d="M0 0 C1.8871875 0.061875 1.8871875 0.061875 3.8125 0.125 C3.8125 1.775 3.8125 3.425 3.8125 5.125 C3.1525 5.125 2.4925 5.125 1.8125 5.125 C1.4825 4.465 1.1525 3.805 0.8125 3.125 C-1.71483235 2.46944881 -1.71483235 2.46944881 -4.1875 2.125 C-4.1875 4.435 -4.1875 6.745 -4.1875 9.125 C-0.90053767 9.92453138 0.52273192 10.22158936 3.8125 9.125 C4.0290625 8.1659375 4.0290625 8.1659375 4.25 7.1875 C4.8125 5.125 4.8125 5.125 6.875 3.875 C7.514375 3.6275 8.15375 3.38 8.8125 3.125 C10.875 4.8125 10.875 4.8125 12.8125 7.125 C12.5625 9.875 12.5625 9.875 11.8125 12.125 C6.1875 13.25 6.1875 13.25 2.8125 12.125 C1.1109375 12.4653125 1.1109375 12.4653125 -0.625 12.8125 C-4.1875 13.125 -4.1875 13.125 -6.6875 11.625 C-8.1875 9.125 -8.1875 9.125 -8.125 5.5 C-6.78891286 0.69008631 -4.68359409 -0.15356046 0 0 Z M6.8125 6.125 C6.8125 7.775 6.8125 9.425 6.8125 11.125 C7.8025 11.125 8.7925 11.125 9.8125 11.125 C9.8125 9.475 9.8125 7.825 9.8125 6.125 C8.8225 6.125 7.8325 6.125 6.8125 6.125 Z " fill="#000000" transform="translate(155.1875,42.875)"/>
<path d="M0 0 C2.31 0 4.62 0 7 0 C7 1.65 7 3.3 7 5 C8.65 5.33 10.3 5.66 12 6 C12.33 4.35 12.66 2.7 13 1 C16.465 2.485 16.465 2.485 20 4 C19.67 5.98 19.34 7.96 19 10 C17.5629191 10.05422947 16.12524538 10.09289723 14.6875 10.125 C13.88699219 10.14820313 13.08648437 10.17140625 12.26171875 10.1953125 C10 10 10 10 7 8 C4.49103314 7.54398739 4.49103314 7.54398739 1.8125 7.375 C0.91144531 7.30023437 0.01039062 7.22546875 -0.91796875 7.1484375 C-1.60503906 7.09945313 -2.29210937 7.05046875 -3 7 C-2.34 6.34 -1.68 5.68 -1 5 C-0.35232207 2.42938689 -0.35232207 2.42938689 0 0 Z " fill="#F8B83A" transform="translate(33,1)"/>
<path d="M0 0 C1.45880109 0.14107747 2.91703551 0.28802415 4.375 0.4375 C5.59316406 0.55931641 5.59316406 0.55931641 6.8359375 0.68359375 C9 1 9 1 11 2 C13.03583123 2.38630039 15.0787318 2.73596784 17.125 3.0625 C18.22070312 3.23910156 19.31640625 3.41570312 20.4453125 3.59765625 C21.28835937 3.73042969 22.13140625 3.86320312 23 4 C21.68 4.33 20.36 4.66 19 5 C19 6.65 19 8.3 19 10 C16.69 10 14.38 10 12 10 C12 8.35 12 6.7 12 5 C10.02463255 5.34786708 10.02463255 5.34786708 8 6 C7.67 6.66 7.34 7.32 7 8 C4.03 7.505 4.03 7.505 1 7 C0.31292445 4.50935112 0 2.62113708 0 0 Z " fill="#F5B43B" transform="translate(20,62)"/>
<path d="M0 0 C1.32 0 2.64 0 4 0 C5.04156593 5.42039415 4.86185864 9.78862584 3.8125 15.1875 C3.69841797 15.88552734 3.58433594 16.58355469 3.46679688 17.30273438 C2.64713117 21.6756717 1.68475265 24.39305434 -2 27 C-3.32 27 -4.64 27 -6 27 C-5.505 25.515 -5.505 25.515 -5 24 C-4.34 24 -3.68 24 -3 24 C-2.855625 23.195625 -2.71125 22.39125 -2.5625 21.5625 C-2 19 -2 19 -1 18 C-0.95304951 15.15949508 -0.95413266 12.33918827 -1 9.5 C-1.04586734 6.66081173 -1.04695049 3.84050492 -1 1 C-0.67 0.67 -0.34 0.34 0 0 Z " fill="#B1A98D" transform="translate(59,27)"/>
<path d="M0 0 C0 0.99 0 1.98 0 3 C-0.99 2.67 -1.98 2.34 -3 2 C-3.33 2.66 -3.66 3.32 -4 4 C-2.3603125 3.6596875 -2.3603125 3.6596875 -0.6875 3.3125 C3 3 3 3 4.9375 4.125 C6.33812547 6.596692 6.35877543 8.20155166 6 11 C5.34 11.66 4.68 12.32 4 13 C2.32457024 12.71395102 0.65614657 12.38218767 -1 12 C-1.33 12.33 -1.66 12.66 -2 13 C-3.99958364 13.04080783 -6.00045254 13.04254356 -8 13 C-8.05447047 11.58376784 -8.09300508 10.16691809 -8.125 8.75 C-8.14820313 7.96109375 -8.17140625 7.1721875 -8.1953125 6.359375 C-7.97962391 3.75385683 -7.3921178 2.20013023 -6 0 C-3.50907189 -1.24546405 -2.58919267 -0.7767578 0 0 Z M-4 6 C-4 7.65 -4 9.3 -4 11 C-3.34 10.67 -2.68 10.34 -2 10 C-2 8.68 -2 7.36 -2 6 C-2.66 6 -3.32 6 -4 6 Z M0 6 C0.33 7.65 0.66 9.3 1 11 C1.99 10.67 2.98 10.34 4 10 C3.67 8.68 3.34 7.36 3 6 C2.01 6 1.02 6 0 6 Z " fill="#000000" transform="translate(216,43)"/>
<path d="M0 0 C1.3921875 0.3403125 1.3921875 0.3403125 2.8125 0.6875 C5.48618708 0.78689357 8.13568295 0.73286978 10.8125 0.6875 C12.8125 7.4375 12.8125 7.4375 12.8125 9.6875 C0.14583333 9.6875 0.14583333 9.6875 -4.1875 8.6875 C-5.1875 7.6875 -5.1875 7.6875 -5.4375 5.3125 C-5.1875 2.6875 -5.1875 2.6875 -4 0.8125 C-2.1875 -0.3125 -2.1875 -0.3125 0 0 Z M-2.1875 2.6875 C-2.1875 4.3375 -2.1875 5.9875 -2.1875 7.6875 C-1.1975 7.6875 -0.2075 7.6875 0.8125 7.6875 C0.8125 6.0375 0.8125 4.3875 0.8125 2.6875 C-0.1775 2.6875 -1.1675 2.6875 -2.1875 2.6875 Z M2.8125 2.6875 C2.8125 4.3375 2.8125 5.9875 2.8125 7.6875 C3.4725 7.6875 4.1325 7.6875 4.8125 7.6875 C4.8125 6.0375 4.8125 4.3875 4.8125 2.6875 C4.1525 2.6875 3.4925 2.6875 2.8125 2.6875 Z M6.8125 2.6875 C6.8125 4.3375 6.8125 5.9875 6.8125 7.6875 C7.4725 7.6875 8.1325 7.6875 8.8125 7.6875 C8.8125 6.0375 8.8125 4.3875 8.8125 2.6875 C8.1525 2.6875 7.4925 2.6875 6.8125 2.6875 Z " fill="#000000" transform="translate(366.1875,46.3125)"/>
<path d="M0 0 C1.98 0 3.96 0 6 0 C5.67 3.63 5.34 7.26 5 11 C5.66 11 6.32 11 7 11 C6.67 8.69 6.34 6.38 6 4 C8.64 4 11.28 4 14 4 C14.144375 5.11375 14.28875 6.2275 14.4375 7.375 C14.78372035 10.82142047 14.78372035 10.82142047 16 13 C10.72 13 5.44 13 0 13 C0 12.34 0 11.68 0 11 C0.66 11 1.32 11 2 11 C2 8.03 2 5.06 2 2 C1.34 2 0.68 2 0 2 C0 1.34 0 0.68 0 0 Z M10 6 C10 7.65 10 9.3 10 11 C10.66 11 11.32 11 12 11 C12 9.35 12 7.7 12 6 C11.34 6 10.68 6 10 6 Z " fill="#000000" transform="translate(106,43)"/>
<path d="M0 0 C7.92629343 0.81295317 14.93420149 3.7903115 20 10 C20 10.66 20 11.32 20 12 C20.66 12 21.32 12 22 12 C22 12.66 22 13.32 22 14 C22.66 14 23.32 14 24 14 C24 14.66 24 15.32 24 16 C22.68 16.33 21.36 16.66 20 17 C19.56429687 16.45730469 19.12859375 15.91460937 18.6796875 15.35546875 C13.19672736 8.76879585 8.18684558 6.12857985 0 4 C0 2.68 0 1.36 0 0 Z " fill="#ACA58F" transform="translate(37,9)"/>
<path d="M0 0 C0.804375 0.33 1.60875 0.66 2.4375 1 C4.95510483 2.31205254 4.95510483 2.31205254 7.3125 1.125 C7.869375 0.75375 8.42625 0.3825 9 0 C9.99 0.66 10.98 1.32 12 2 C12 2.66 12 3.32 12 4 C10.35 3.67 8.7 3.34 7 3 C7.66 4.32 8.32 5.64 9 7 C9.99 6.67 10.98 6.34 12 6 C11.34 7.32 10.68 8.64 10 10 C9.113125 9.814375 8.22625 9.62875 7.3125 9.4375 C4.08649307 8.8136451 4.08649307 8.8136451 1.3125 9.625 C-1 10 -1 10 -2.875 8.875 C-4 7 -4 7 -3.875 4.4375 C-3 2 -3 2 0 0 Z M-1 5 C-1 5.66 -1 6.32 -1 7 C0.65 6.67 2.3 6.34 4 6 C4 5.67 4 5.34 4 5 C2.35 5 0.7 5 -1 5 Z " fill="#000000" transform="translate(247,46)"/>
<path d="M0 0 C0.66 2.31 1.32 4.62 2 7 C-0.31 7.33 -2.62 7.66 -5 8 C-5 8.66 -5 9.32 -5 10 C-8.75 12 -8.75 12 -11 12 C-12.67745682 12.63903117 -14.34561387 13.30341637 -16 14 C-16 11 -16 11 -14.8125 9.25 C-13 8 -13 8 -10.3125 8.3125 C-9.549375 8.539375 -8.78625 8.76625 -8 9 C-8.66 7.35 -9.32 5.7 -10 4 C-8.71086513 3.32845067 -7.41859796 2.66291141 -6.125 2 C-5.40570313 1.62875 -4.68640625 1.2575 -3.9453125 0.875 C-2 -0 -2 -0 0 0 Z " fill="#C67A22" transform="translate(26,1)"/>
<path d="M0 0 C2.9375 1.5625 2.9375 1.5625 5 4 C5.3125 7.75 5.3125 7.75 5 11 C1.46352496 9.32482761 0.2088437 8.50719183 -1.3125 4.8125 C-1.539375 3.884375 -1.76625 2.95625 -2 2 C-2.66 2 -3.32 2 -4 2 C-4.2165625 2.928125 -4.2165625 2.928125 -4.4375 3.875 C-5 6 -5 6 -6 8 C-7.32 8 -8.64 8 -10 8 C-10.33 8.99 -10.66 9.98 -11 11 C-11.48076923 4.75 -11.48076923 4.75 -9.4375 1.5625 C-6.04295632 -0.61348954 -3.9634351 -0.55627159 0 0 Z " fill="#0C5495" transform="translate(40,44)"/>
<path d="M0 0 C0.33 0.66 0.66 1.32 1 2 C2.98 2 4.96 2 7 2 C7 5.63 7 9.26 7 13 C5.02 13 3.04 13 1 13 C1 13.99 1 14.98 1 16 C2.32 16 3.64 16 5 16 C4.44894091 19.9492568 3.61064629 23.34920174 2 27 C0.02 26.67 -1.96 26.34 -4 26 C-3.67 26.99 -3.34 27.98 -3 29 C-3.99 28.67 -4.98 28.34 -6 28 C-5.6875 26.0625 -5.6875 26.0625 -5 24 C-2 23 -2 23 1 24 C1.33 22.02 1.66 20.04 2 18 C1.01 17.67 0.02 17.34 -1 17 C-0.67 15.02 -0.34 13.04 0 11 C1.65 11 3.3 11 5 11 C5 8.69 5 6.38 5 4 C3.35 4 1.7 4 0 4 C0 2.68 0 1.36 0 0 Z " fill="#332C25" transform="translate(67,29)"/>
<path d="M0 0 C0.99 0 1.98 0 3 0 C3.03738281 0.65226562 3.07476563 1.30453125 3.11328125 1.9765625 C3.51887629 7.36859064 4.27558065 11.23226613 7 16 C7.6875 18.375 7.6875 18.375 8 20 C8.66 20 9.32 20 10 20 C10 20.66 10 21.32 10 22 C8.35 22 6.7 22 5 22 C5 21.34 5 20.68 5 20 C4.01 19.67 3.02 19.34 2 19 C2 18.34 2 17.68 2 17 C2.66 17 3.32 17 4 17 C4 16.34 4 15.68 4 15 C3.01 15 2.02 15 1 15 C1 12.69 1 10.38 1 8 C0.34 8 -0.32 8 -1 8 C-0.67 5.36 -0.34 2.72 0 0 Z " fill="#B5AF9C" transform="translate(10,32)"/>
<path d="M0 0 C0.78375 0.04125 1.5675 0.0825 2.375 0.125 C1.83160208 4.68954251 0.58036179 8.0978176 -1.625 12.125 C-4.86708567 11.77450425 -6.24027704 11.56278819 -8.4375 9.0625 C-8.829375 8.423125 -9.22125 7.78375 -9.625 7.125 C-2.625 0.125 -2.625 0.125 0 0 Z " fill="#FCEE5A" transform="translate(51.625,37.875)"/>
<path d="M0 0 C0.33 1.32 0.66 2.64 1 4 C-2.75 7 -2.75 7 -5 7 C-5.2475 7.515625 -5.495 8.03125 -5.75 8.5625 C-7.39581616 11.77184151 -9.1976096 14.87585664 -11 18 C-12.32 18 -13.64 18 -15 18 C-14.39030912 14.70179273 -13.24502886 12.69301158 -11.1875 10.0625 C-10.64996094 9.3715625 -10.11242187 8.680625 -9.55859375 7.96875 C-9.04425781 7.3190625 -8.52992187 6.669375 -8 6 C-7.2575 5.030625 -6.515 4.06125 -5.75 3.0625 C-3.81783889 0.78531012 -2.99344321 0 0 0 Z " fill="#ABA492" transform="translate(25,12)"/>
<path d="M0 0 C2.4932534 0.99730136 3.77467439 1.65074531 5.25 3.9375 C6 6 6 6 6 9 C7.65 8.67 9.3 8.34 11 8 C14 14.625 14 14.625 14 18 C12.02 18.66 10.04 19.32 8 20 C8.33 19.01 8.66 18.02 9 17 C9.99 17 10.98 17 12 17 C11.34 14.69 10.68 12.38 10 10 C8.02 10.33 6.04 10.66 4 11 C3.62875 10.0409375 3.62875 10.0409375 3.25 9.0625 C2.20311706 6.80104993 2.20311706 6.80104993 -0.0625 6.4375 C-0.701875 6.293125 -1.34125 6.14875 -2 6 C-2.33 5.01 -2.66 4.02 -3 3 C-2.01 2.01 -1.02 1.02 0 0 Z " fill="#734E23" transform="translate(58,9)"/>
<path d="M0 0 C0.66 0 1.32 0 2 0 C3.125 6.75 3.125 6.75 2 9 C3.65 9.33 5.3 9.66 7 10 C6 13 6 13 4 14 C-0.05142119 14.25860135 -1.54337669 14.30441554 -5 12 C-5 11.34 -5 10.68 -5 10 C-3.35 9.67 -1.7 9.34 0 9 C-0.185625 8.071875 -0.37125 7.14375 -0.5625 6.1875 C-1 3 -1 3 0 0 Z " fill="#92100B" transform="translate(36,46)"/>
<path d="M0 0 C1.09570312 0.10183594 2.19140625 0.20367187 3.3203125 0.30859375 C4.16335937 0.39238281 5.00640625 0.47617188 5.875 0.5625 C4.885 0.8925 3.895 1.2225 2.875 1.5625 C2.875 2.2225 2.875 2.8825 2.875 3.5625 C1.885 3.5625 0.895 3.5625 -0.125 3.5625 C-0.125 4.2225 -0.125 4.8825 -0.125 5.5625 C-2.765 6.5525 -5.405 7.5425 -8.125 8.5625 C-8.24875 7.758125 -8.3725 6.95375 -8.5 6.125 C-8.809375 4.8565625 -8.809375 4.8565625 -9.125 3.5625 C-9.785 3.2325 -10.445 2.9025 -11.125 2.5625 C-10.135 2.5625 -9.145 2.5625 -8.125 2.5625 C-8.125 1.9025 -8.125 1.2425 -8.125 0.5625 C-5.28943413 -0.85528293 -3.1341294 -0.30007622 0 0 Z " fill="#E7B33E" transform="translate(34.125,7.4375)"/>
<path d="M0 0 C0.66 0 1.32 0 2 0 C2 0.66 2 1.32 2 2 C3.65 2 5.3 2 7 2 C7.33 5.3 7.66 8.6 8 12 C5.36 12 2.72 12 0 12 C-2.21538462 5.72307692 -2.21538462 5.72307692 -1.125 2.0625 C-0.75375 1.381875 -0.3825 0.70125 0 0 Z M1 5 C1 6.65 1 8.3 1 10 C1.99 10 2.98 10 4 10 C4 8.35 4 6.7 4 5 C3.01 5 2.02 5 1 5 Z " fill="#000000" transform="translate(353,44)"/>
<path d="M0 0 C0 0.33 0 0.66 0 1 C-2.41626418 1.19534474 -4.83265229 1.38153404 -7.25 1.5625 C-7.93191406 1.61857422 -8.61382812 1.67464844 -9.31640625 1.73242188 C-12.7420581 1.98186254 -15.72701177 2.13879745 -19 1 C-19 1.66 -19 2.32 -19 3 C-19.66 3 -20.32 3 -21 3 C-21 2.34 -21 1.68 -21 1 C-21.99 1 -22.98 1 -24 1 C-24 0.34 -24 -0.32 -24 -1 C-17.32737122 -4.33631439 -6.87215295 -2.19908894 0 0 Z " fill="#FEF34F" transform="translate(52,22)"/>
<path d="M0 0 C4.29 0.66 8.58 1.32 13 2 C13 3.65 13 5.3 13 7 C12.67 6.34 12.34 5.68 12 5 C11.34 5.165 10.68 5.33 10 5.5 C6.26900206 6.12183299 2.78126622 6.06408926 -1 6 C-1.33 4.68 -1.66 3.36 -2 2 C-1.34 2 -0.68 2 0 2 C0 1.34 0 0.68 0 0 Z " fill="#7B7639" transform="translate(42,33)"/>
<path d="M0 0 C3.3 0 6.6 0 10 0 C10.33 1.32 10.66 2.64 11 4 C10.34 4 9.68 4 9 4 C9 3.34 9 2.68 9 2 C8.01 2 7.02 2 6 2 C6 4.97 6 7.94 6 11 C6.66 11 7.32 11 8 11 C8 11.66 8 12.32 8 13 C6.02 13 4.04 13 2 13 C2 12.34 2 11.68 2 11 C2.66 11 3.32 11 4 11 C4 8.03 4 5.06 4 2 C3.01 2 2.02 2 1 2 C1 2.66 1 3.32 1 4 C0.34 4 -0.32 4 -1 4 C-0.67 2.68 -0.34 1.36 0 0 Z " fill="#000000" transform="translate(233,43)"/>
<path d="M0 0 C0.70125 0.804375 1.4025 1.60875 2.125 2.4375 C6.02618719 5.9146451 8.93504129 6 14 6 C15.66666667 6 17.33333333 6 19 6 C18.67 6.99 18.34 7.98 18 9 C12.92647987 10.17081234 8.071176 10.16637048 3 9 C2.34 8.34 1.68 7.68 1 7 C1 6.34 1 5.68 1 5 C0.68197057 3.33034549 0.35015049 1.66321482 0 0 Z " fill="#EFC34C" transform="translate(28,56)"/>
<path d="M0 0 C3.98381075 2.16264012 6.88983545 4.71211176 10 8 C8.35 9.32 6.7 10.64 5 12 C0.09846827 5.92560175 0.09846827 5.92560175 -0.3125 2.0625 C-0.209375 1.381875 -0.10625 0.70125 0 0 Z " fill="#F9EF73" transform="translate(22,38)"/>
<path d="M0 0 C0.33 1.32 0.66 2.64 1 4 C2.65 4 4.3 4 6 4 C6 6.31 6 8.62 6 11 C4.35 11 2.7 11 1 11 C0.67 12.32 0.34 13.64 0 15 C0 10.05 0 5.1 0 0 Z " fill="#E59829" transform="translate(66,29)"/>
<path d="M0 0 C0.99 0 1.98 0 3 0 C3.33 1.98 3.66 3.96 4 6 C4.66 6 5.32 6 6 6 C6.33 4.68 6.66 3.36 7 2 C7.33 3.98 7.66 5.96 8 8 C4.7 8 1.4 8 -2 8 C-1.125 1.125 -1.125 1.125 0 0 Z " fill="#87130D" transform="translate(23,23)"/>
<path d="M0 0 C0.33 0.66 0.66 1.32 1 2 C2.32 2 3.64 2 5 2 C5 3.98 5 5.96 5 8 C4.01 8 3.02 8 2 8 C1.67 7.34 1.34 6.68 1 6 C-0.98 6 -2.96 6 -5 6 C-5.33 4.68 -5.66 3.36 -6 2 C-4.02 1.34 -2.04 0.68 0 0 Z " fill="#858362" transform="translate(33,33)"/>
<path d="M0 0 C2.31 0 4.62 0 7 0 C7 1.65 7 3.3 7 5 C7.99 5.33 8.98 5.66 10 6 C6.37 6 2.74 6 -1 6 C-0.67 4.02 -0.34 2.04 0 0 Z " fill="#E39124" transform="translate(33,1)"/>
<path d="M0 0 C-1.62339805 1.70884005 -3.29319053 3.37446717 -5 5 C-5.66 5 -6.32 5 -7 5 C-7 3.68 -7 2.36 -7 1 C-3.375 -1.125 -3.375 -1.125 0 0 Z M-8 5 C-5.03 5.495 -5.03 5.495 -2 6 C-2 7.65 -2 9.3 -2 11 C-2.66 9.68 -3.32 8.36 -4 7 C-4.99 7.33 -5.98 7.66 -7 8 C-8.71567661 11.50294871 -8.71567661 11.50294871 -10 15 C-11.39195915 10.82412255 -9.82323219 8.86525224 -8 5 Z " fill="#F8E94A" transform="translate(30,16)"/>
<path d="M0 0 C1.65 0 3.3 0 5 0 C5.96070434 2.88211302 6.10581883 4.69850044 6.0625 7.6875 C6.05347656 8.49574219 6.04445313 9.30398437 6.03515625 10.13671875 C6.02355469 10.75160156 6.01195312 11.36648437 6 12 C5.67 12 5.34 12 5 12 C5 10.35 5 8.7 5 7 C3.35 7 1.7 7 0 7 C0 4.69 0 2.38 0 0 Z " fill="#E69023" transform="translate(1,33)"/>
<path d="M0 0 C0.33 1.32 0.66 2.64 1 4 C-0.65 4 -2.3 4 -4 4 C-3.67 4.66 -3.34 5.32 -3 6 C-3.9375 8.125 -3.9375 8.125 -5 10 C-5.33 8.68 -5.66 7.36 -6 6 C-7.32 6 -8.64 6 -10 6 C-10 4.68 -10 3.36 -10 2 C-6.30458414 1.04975021 -3.69541586 1.04975021 0 2 C0 1.34 0 0.68 0 0 Z " fill="#EDED7E" transform="translate(31,29)"/>
<path d="M0 0 C0.33 0.66 0.66 1.32 1 2 C2.98 2 4.96 2 7 2 C7 5.63 7 9.26 7 13 C5.02 13 3.04 13 1 13 C1 13.99 1 14.98 1 16 C0.34 15.67 -0.32 15.34 -1 15 C-0.67 13.68 -0.34 12.36 0 11 C1.65 11 3.3 11 5 11 C5 8.69 5 6.38 5 4 C3.35 4 1.7 4 0 4 C0 2.68 0 1.36 0 0 Z " fill="#262525" transform="translate(67,29)"/>
<path d="M0 0 C2.31 0 4.62 0 7 0 C7 0.66 7 1.32 7 2 C6.01 2 5.02 2 4 2 C4.33 4.31 4.66 6.62 5 9 C3.35 9 1.7 9 0 9 C0 6.03 0 3.06 0 0 Z " fill="#000000" transform="translate(222,47)"/>
<path d="M0 0 C0.99 0.33 1.98 0.66 3 1 C2.67 2.32 2.34 3.64 2 5 C1.34 5 0.68 5 0 5 C-0.33 5.99 -0.66 6.98 -1 8 C-2.65 8.33 -4.3 8.66 -6 9 C-6.33 8.34 -6.66 7.68 -7 7 C-4.66666667 4.66666667 -2.33333333 2.33333333 0 0 Z " fill="#F6ED82" transform="translate(49,38)"/>
<path d="M0 0 C2 2 2 2 2.125 4.625 C2.08375 5.40875 2.0425 6.1925 2 7 C2.66 7.33 3.32 7.66 4 8 C2.35 8.66 0.7 9.32 -1 10 C-1.99 7.69 -2.98 5.38 -4 3 C-2.68 2.67 -1.36 2.34 0 2 C0 1.34 0 0.68 0 0 Z " fill="#E89222" transform="translate(7,45)"/>
<path d="M0 0 C4.875 0.875 4.875 0.875 6 2 C6.04092937 4.33297433 6.04241723 6.66705225 6 9 C3.5625 7.875 3.5625 7.875 1 6 C0.1875 2.8125 0.1875 2.8125 0 0 Z " fill="#0156A0" transform="translate(39,46)"/>
<path d="M0 0 C1.4540625 0.0309375 1.4540625 0.0309375 2.9375 0.0625 C2.9375 0.7225 2.9375 1.3825 2.9375 2.0625 C1.9475 2.0625 0.9575 2.0625 -0.0625 2.0625 C-0.3925 5.3625 -0.7225 8.6625 -1.0625 12.0625 C-1.3925 10.7425 -1.7225 9.4225 -2.0625 8.0625 C-3.0525 7.7325 -4.0425 7.4025 -5.0625 7.0625 C-4.02286585 0.0820993 -4.02286585 0.0820993 0 0 Z " fill="#D78522" transform="translate(8.0625,19.9375)"/>
<path d="M0 0 C0.66 0 1.32 0 2 0 C2.66 1.65 3.32 3.3 4 5 C4.66 5 5.32 5 6 5 C6 5.66 6 6.32 6 7 C6.66 7 7.32 7 8 7 C8 7.66 8 8.32 8 9 C6.68 9.33 5.36 9.66 4 10 C2.02 7.36 0.04 4.72 -2 2 C-1.34 1.34 -0.68 0.68 0 0 Z " fill="#A9A492" transform="translate(53,16)"/>
<path d="M0 0 C1.32 0.66 2.64 1.32 4 2 C4 3.65 4 5.3 4 7 C5.98 7.66 7.96 8.32 10 9 C10.33 8.34 10.66 7.68 11 7 C11 8.32 11 9.64 11 11 C7.0507432 10.44894091 3.65079826 9.61064629 0 8 C0.66 6.02 1.32 4.04 2 2 C1.01 2.33 0.02 2.66 -1 3 C-0.67 2.01 -0.34 1.02 0 0 Z " fill="#272525" transform="translate(17,61)"/>
<path d="M0 0 C0.33 0 0.66 0 1 0 C1.3125 3.1875 1.3125 3.1875 1 7 C-1.5 9.9375 -1.5 9.9375 -4 12 C-3.34 10.35 -2.68 8.7 -2 7 C-3.65 6.67 -5.3 6.34 -7 6 C-6.67 4.35 -6.34 2.7 -6 1 C-3.525 2.98 -3.525 2.98 -1 5 C-0.67 3.35 -0.34 1.7 0 0 Z " fill="#0E4574" transform="translate(45,49)"/>
<path d="M0 0 C1.65 0 3.3 0 5 0 C5.33 0.66 5.66 1.32 6 2 C5.34 2 4.68 2 4 2 C3.34 3.32 2.68 4.64 2 6 C-0.97 5.67 -3.94 5.34 -7 5 C-7 4.67 -7 4.34 -7 4 C-6.030625 3.71125 -5.06125 3.4225 -4.0625 3.125 C-0.89335797 2.35785318 -0.89335797 2.35785318 0 0 Z " fill="#F8F1A4" transform="translate(42,39)"/>
<path d="M0 0 C2.97 0.495 2.97 0.495 6 1 C6 2.32 6 3.64 6 5 C7.98 5.66 9.96 6.32 12 7 C12 7.33 12 7.66 12 8 C10.02 8 8.04 8 6 8 C5.67 7.01 5.34 6.02 5 5 C4.34 4.67 3.68 4.34 3 4 C1 3 1 3 0 0 Z " fill="#F0BF4F" transform="translate(15,54)"/>
<path d="M0 0 C1 3 1 3 -0.4375 6.1875 C-1.2109375 7.5796875 -1.2109375 7.5796875 -2 9 C-3.32 9 -4.64 9 -6 9 C-5.52797514 4.75177626 -3.03344482 2.80010291 0 0 Z " fill="#B8B19F" transform="translate(16,21)"/>
<path d="M0 0 C1.30048841 2.60097682 1.56471422 5.13955062 2 8 C2.99 8.33 3.98 8.66 5 9 C5 9.66 5 10.32 5 11 C0.75153925 10.52794881 -1.26819288 8.11122478 -4 5 C-4 4.34 -4 3.68 -4 3 C-2 1.375 -2 1.375 0 0 Z " fill="#3E3123" transform="translate(11,55)"/>
<path d="M0 0 C0.66 0 1.32 0 2 0 C2.33 1.32 2.66 2.64 3 4 C3.99 4 4.98 4 6 4 C6.33 5.32 6.66 6.64 7 8 C4.03 7.505 4.03 7.505 1 7 C0.31292445 4.50935112 0 2.62113708 0 0 Z " fill="#E69122" transform="translate(20,62)"/>
<path d="M0 0 C0.66 0 1.32 0 2 0 C2 0.66 2 1.32 2 2 C3.32 2 4.64 2 6 2 C6.33 3.32 6.66 4.64 7 6 C6.01 6 5.02 6 4 6 C3.67 5.34 3.34 4.68 3 4 C2.67 4.66 2.34 5.32 2 6 C0.68 5.67 -0.64 5.34 -2 5 C-2 4.01 -2 3.02 -2 2 C-1.34 2 -0.68 2 0 2 C0 1.34 0 0.68 0 0 Z " fill="#8A8230" transform="translate(19,33)"/>
<path d="M0 0 C1.32 0 2.64 0 4 0 C4.33 2.31 4.66 4.62 5 7 C3.68 7 2.36 7 1 7 C0.34 5.02 -0.32 3.04 -1 1 C-0.67 0.67 -0.34 0.34 0 0 Z " fill="#B5AF9D" transform="translate(59,27)"/>
<path d="M0 0 C0.66 0 1.32 0 2 0 C2 1.98 2 3.96 2 6 C2.99 6 3.98 6 5 6 C5 6.99 5 7.98 5 9 C3.35 8.67 1.7 8.34 0 8 C0 7.34 0 6.68 0 6 C-0.99 5.67 -1.98 5.34 -3 5 C-2.01 5 -1.02 5 0 5 C0 3.35 0 1.7 0 0 Z " fill="#FAFA9A" transform="translate(44,26)"/>
<path d="M0 0 C0.66 1.32 1.32 2.64 2 4 C-0.31 4.66 -2.62 5.32 -5 6 C-5.33 4.68 -5.66 3.36 -6 2 C-4.02 1.34 -2.04 0.68 0 0 Z " fill="#EC9621" transform="translate(52,64)"/>
<path d="M0 0 C1.4606285 2.64738916 2 3.89448334 2 7 C0.68 6.67 -0.64 6.34 -2 6 C-2 5.01 -2 4.02 -2 3 C-3.32 2.34 -4.64 1.68 -6 1 C-3 0 -3 0 0 0 Z " fill="#E08D21" transform="translate(68,19)"/>
<path d="M0 0 C0.680625 -0.01417969 1.36125 -0.02835938 2.0625 -0.04296875 C4 0.1875 4 0.1875 7 2.1875 C-1.57142857 3.47321429 -1.57142857 3.47321429 -5 2.1875 C-5 2.8475 -5 3.5075 -5 4.1875 C-5.66 4.1875 -6.32 4.1875 -7 4.1875 C-7 3.1975 -7 2.2075 -7 1.1875 C-4.35559361 0.3060312 -2.71939248 0.02575182 0 0 Z " fill="#F3F168" transform="translate(38,20.8125)"/>
<path d="M0 0 C2.31 0 4.62 0 7 0 C7 0.99 7 1.98 7 3 C8.65 3 10.3 3 12 3 C12 3.99 12 4.98 12 6 C9.69 6 7.38 6 5 6 C5 4.35 5 2.7 5 1 C3.35 1.33 1.7 1.66 0 2 C0 1.34 0 0.68 0 0 Z " fill="#D18624" transform="translate(27,66)"/>
<path d="M0 0 C0.66 0 1.32 0 2 0 C2.391875 0.495 2.78375 0.99 3.1875 1.5 C5.96010717 3.79457145 8.5318126 3.19631249 12 3 C12 3.99 12 4.98 12 6 C4.65306122 6.48979592 4.65306122 6.48979592 1.5 4.125 C0 2 0 2 0 0 Z " fill="#202F4B" transform="translate(29,56)"/>
<path d="M0 0 C0.99 0.33 1.98 0.66 3 1 C3.33 2.65 3.66 4.3 4 6 C2.35 6 0.7 6 -1 6 C-1.33 4.68 -1.66 3.36 -2 2 C-1.34 2 -0.68 2 0 2 C0 1.34 0 0.68 0 0 Z " fill="#8D8B6B" transform="translate(42,33)"/>
<path d="M0 0 C2.4375 0.625 2.4375 0.625 5 2 C5.8125 5.125 5.8125 5.125 6 8 C5.01 8.33 4.02 8.66 3 9 C3 7.02 3 5.04 3 3 C1.68 2.67 0.36 2.34 -1 2 C-0.67 1.34 -0.34 0.68 0 0 Z " fill="#FDFCE7" transform="translate(35,32)"/>
<path d="M0 0 C2.97 0 5.94 0 9 0 C9 0.33 9 0.66 9 1 C6.69 1 4.38 1 2 1 C2.020625 1.804375 2.04125 2.60875 2.0625 3.4375 C2 6 2 6 1 7 C-0.66617115 7.04063832 -2.33388095 7.042721 -4 7 C-2.68 6.34 -1.36 5.68 0 5 C0 3.35 0 1.7 0 0 Z " fill="#3B3027" transform="translate(31,0)"/>
<path d="M0 0 C2.97 0 5.94 0 9 0 C7.68 0.33 6.36 0.66 5 1 C4.67 1.99 4.34 2.98 4 4 C2.35 3.67 0.7 3.34 -1 3 C-0.67 2.01 -0.34 1.02 0 0 Z " fill="#EDA42D" transform="translate(34,66)"/>
<path d="M0 0 C0.66 0 1.32 0 2 0 C2.33 2.31 2.66 4.62 3 7 C1.68 7 0.36 7 -1 7 C-0.67 4.69 -0.34 2.38 0 0 Z " fill="#C00606" transform="translate(36,46)"/>
<path d="M0 0 C0.33 0 0.66 0 1 0 C1 1.98 1 3.96 1 6 C-0.65 6 -2.3 6 -4 6 C-4 5.01 -4 4.02 -4 3 C-4.99 2.67 -5.98 2.34 -7 2 C-4.69 2 -2.38 2 0 2 C0 1.34 0 0.68 0 0 Z " fill="#F4F164" transform="translate(53,29)"/>
<path d="M0 0 C2.64 0 5.28 0 8 0 C7.67 0.99 7.34 1.98 7 3 C4.69 3.33 2.38 3.66 0 4 C0 2.68 0 1.36 0 0 Z " fill="#B0ACA1" transform="translate(27,10)"/>
<path d="M0 0 C0.33 1.65 0.66 3.3 1 5 C-0.32 4.34 -1.64 3.68 -3 3 C-5.99397838 5.05611756 -5.99397838 5.05611756 -8 8 C-8.66 6.68 -9.32 5.36 -10 4 C-8.71086513 3.32845067 -7.41859796 2.66291141 -6.125 2 C-5.40570312 1.62875 -4.68640625 1.2575 -3.9453125 0.875 C-2 -0 -2 -0 0 0 Z " fill="#232426" transform="translate(26,1)"/>
<path d="M0 0 C1.32 0 2.64 0 4 0 C4 1.98 4 3.96 4 6 C3.01 6 2.02 6 1 6 C0 4 0 4 -1 1 C-0.67 0.67 -0.34 0.34 0 0 Z " fill="#919084" transform="translate(34,35)"/>
<path d="M0 0 C-0.99 0 -1.98 0 -3 0 C-3 0.66 -3 1.32 -3 2 C-3.66 2 -4.32 2 -5 2 C-5 2.99 -5 3.98 -5 5 C-5.66 5 -6.32 5 -7 5 C-7.33 5.99 -7.66 6.98 -8 8 C-8 5.36 -8 2.72 -8 0 C-4.94736336 -0.98120464 -3.05263664 -0.98120464 0 0 Z " fill="#FDEA47" transform="translate(22,33)"/>
<path d="M0 0 C0.66 0 1.32 0 2 0 C2.45375 0.928125 2.9075 1.85625 3.375 2.8125 C4.9421633 6.03921389 4.9421633 6.03921389 7 9 C6.01 9.33 5.02 9.66 4 10 C0 3.375 0 3.375 0 0 Z " fill="#FDEE51" transform="translate(20,40)"/>
<path d="M0 0 C-0.33 0.66 -0.66 1.32 -1 2 C-3.64860427 2.59355614 -6.29197322 2.74209269 -9 3 C-8.67 2.01 -8.34 1.02 -8 0 C-5.04215769 -1.22393475 -3.00272755 -0.96516243 0 0 Z " fill="#F1B039" transform="translate(53,63)"/>
<path d="M0 0 C0.28875 0.61875 0.5775 1.2375 0.875 1.875 C1.93720042 4.13325765 1.93720042 4.13325765 4 6 C4 6.99 4 7.98 4 9 C2.68 8.67 1.36 8.34 0 8 C-1.125 2.25 -1.125 2.25 0 0 Z " fill="#E18D21" transform="translate(12,55)"/>
<path d="M0 0 C0.99 0 1.98 0 3 0 C3 1.98 3 3.96 3 6 C2.01 6 1.02 6 0 6 C-0.33 6.66 -0.66 7.32 -1 8 C-0.67 5.36 -0.34 2.72 0 0 Z " fill="#A59F92" transform="translate(10,32)"/>
<path d="M0 0 C1.32 0 2.64 0 4 0 C2.95125002 2.62187494 2.35068687 3.79371361 -0.125 5.25 C-0.74375 5.4975 -1.3625 5.745 -2 6 C-1.49396008 3.83125748 -1.00016187 2.00032373 0 0 Z " fill="#DD8A20" transform="translate(60,58)"/>
<path d="M0 0 C0.33 0 0.66 0 1 0 C1 1.65 1 3.3 1 5 C1.66 5 2.32 5 3 5 C3 5.66 3 6.32 3 7 C0.7272325 8.49524178 -1.5679943 9.78399715 -4 11 C-3.34 9.35 -2.68 7.7 -2 6 C-1.34 6 -0.68 6 0 6 C0 4.02 0 2.04 0 0 Z " fill="#FCEC42" transform="translate(56,35)"/>
<path d="M0 0 C3.16605307 2.11070205 4.19587357 3.73539027 6 7 C2.08597051 5.73058503 0.20927127 4.48832306 -2 1 C-1.34 0.67 -0.68 0.34 0 0 Z " fill="#FCF59C" transform="translate(27,38)"/>
<path d="M0 0 C3.465 1.485 3.465 1.485 7 3 C6.01 4.485 6.01 4.485 5 6 C3.02 5.01 1.04 4.02 -1 3 C-0.67 2.01 -0.34 1.02 0 0 Z " fill="#E78B1F" transform="translate(46,2)"/>
<path d="M0 0 C0.66 0.99 1.32 1.98 2 3 C1.34 3 0.68 3 0 3 C-0.66 4.65 -1.32 6.3 -2 8 C-2.99 7.01 -3.98 6.02 -5 5 C-3.625 3.5 -3.625 3.5 -2 2 C-1.34 2 -0.68 2 0 2 C0 1.34 0 0.68 0 0 Z " fill="#EFA42D" transform="translate(60,55)"/>
<path d="M0 0 C0 0.33 0 0.66 0 1 C-3.3 1 -6.6 1 -10 1 C-7.68309104 -3.63381792 -3.88575585 -1.46795221 0 0 Z " fill="#AFA60D" transform="translate(42,56)"/>
<path d="M0 0 C0.66 0.33 1.32 0.66 2 1 C1.34 2.98 0.68 4.96 0 7 C-0.99 7 -1.98 7 -3 7 C-2.38722388 4.03824877 -1.74627478 2.61941217 0 0 Z " fill="#F0981F" transform="translate(68,46)"/>
<path d="M0 0 C0.66 0.66 1.32 1.32 2 2 C0.35 3.65 -1.3 5.3 -3 7 C-3.66 5.68 -4.32 4.36 -5 3 C-3.35 2.67 -1.7 2.34 0 2 C0 1.34 0 0.68 0 0 Z " fill="#EF9A22" transform="translate(15,11)"/>
<path d="M0 0 C1.98 0.66 3.96 1.32 6 2 C6 2.66 6 3.32 6 4 C3.125 4.125 3.125 4.125 0 4 C-0.66 3.34 -1.32 2.68 -2 2 C-1.34 2 -0.68 2 0 2 C0 1.34 0 0.68 0 0 Z " fill="#F3A52A" transform="translate(45,5)"/>
<path d="M0 0 C0.99 0.33 1.98 0.66 3 1 C2.67 2.32 2.34 3.64 2 5 C1.34 5 0.68 5 0 5 C-0.33 5.99 -0.66 6.98 -1 8 C-1.33 7.34 -1.66 6.68 -2 6 C-1.0625 3.875 -1.0625 3.875 0 2 C-0.66 1.67 -1.32 1.34 -2 1 C-1.34 0.67 -0.68 0.34 0 0 Z " fill="#F1E76E" transform="translate(49,38)"/>
<path d="M0 0 C2 1.1875 2 1.1875 4 3 C4.25 5.6875 4.25 5.6875 4 8 C2.35 7.67 0.7 7.34 -1 7 C0.32 6.67 1.64 6.34 3 6 C3 5.34 3 4.68 3 4 C1.35 3.67 -0.3 3.34 -2 3 C-1.34 2.67 -0.68 2.34 0 2 C0 1.34 0 0.68 0 0 Z " fill="#292626" transform="translate(2,25)"/>
<path d="M0 0 C0.33 0.66 0.66 1.32 1 2 C1.66 2 2.32 2 3 2 C3.33 3.32 3.66 4.64 4 6 C2.35 6.33 0.7 6.66 -1 7 C-0.67 4.69 -0.34 2.38 0 0 Z " fill="#88301A" transform="translate(22,24)"/>
<path d="M0 0 C0.99 0.66 1.98 1.32 3 2 C1.515 4.475 1.515 4.475 0 7 C-0.66 6.67 -1.32 6.34 -2 6 C-1.67 4.68 -1.34 3.36 -1 2 C-1.66 1.67 -2.32 1.34 -3 1 C-2.01 0.67 -1.02 0.34 0 0 Z " fill="#F3AC32" transform="translate(65,45)"/>
<path d="M0 0 C0.33 1.32 0.66 2.64 1 4 C-0.65 4.33 -2.3 4.66 -4 5 C-4.66 4.01 -5.32 3.02 -6 2 C-4.35 2 -2.7 2 -1 2 C-0.67 1.34 -0.34 0.68 0 0 Z " fill="#FBF9B0" transform="translate(32,30)"/>
<path d="M0 0 C0.99 0 1.98 0 3 0 C3.66 1.32 4.32 2.64 5 4 C4.01 4.33 3.02 4.66 2 5 C1.01 4.01 0.02 3.02 -1 2 C-0.67 1.34 -0.34 0.68 0 0 Z " fill="#EA9D28" transform="translate(56,11)"/>
<path d="M0 0 C0.99 0 1.98 0 3 0 C4.125 3.75 4.125 3.75 3 6 C2.34 6 1.68 6 1 6 C0.67 4.02 0.34 2.04 0 0 Z " fill="#FABB3B" transform="translate(7,41)"/>
<path d="M0 0 C1.98 0 3.96 0 6 0 C6 1.65 6 3.3 6 5 C5.34 4.34 4.68 3.68 4 3 C2.68 3 1.36 3 0 3 C0 2.01 0 1.02 0 0 Z " fill="#EAF6A6" transform="translate(35,26)"/>
<path d="M0 0 C4.67692308 1.47692308 4.67692308 1.47692308 6.3125 4.125 C6.539375 4.74375 6.76625 5.3625 7 6 C4 6 4 6 1.8125 4.125 C0 2 0 2 0 0 Z " fill="#C1BEB8" transform="translate(47,12)"/>
<path d="M0 0 C0.66 0.33 1.32 0.66 2 1 C2 1.66 2 2.32 2 3 C1.01 3 0.02 3 -1 3 C-0.67 2.01 -0.34 1.02 0 0 Z " fill="#000000" transform="translate(358,42)"/>
<path d="M0 0 C0.66 0.33 1.32 0.66 2 1 C2 1.66 2 2.32 2 3 C1.01 3 0.02 3 -1 3 C-0.67 2.01 -0.34 1.02 0 0 Z " fill="#000000" transform="translate(279,42)"/>
<path d="M0 0 C0.66 0.33 1.32 0.66 2 1 C2 1.66 2 2.32 2 3 C1.01 3 0.02 3 -1 3 C-0.67 2.01 -0.34 1.02 0 0 Z " fill="#000000" transform="translate(195,42)"/>
<path d="M0 0 C0.66 0.33 1.32 0.66 2 1 C2 1.66 2 2.32 2 3 C1.01 3 0.02 3 -1 3 C-0.67 2.01 -0.34 1.02 0 0 Z " fill="#000000" transform="translate(132,42)"/>
</svg>
