<?xml version="1.0" encoding="UTF-8"?>
<svg version="1.1" xmlns="http://www.w3.org/2000/svg" width="844" height="231">
<path d="M0 0 C278.52 0 557.04 0 844 0 C844 76.23 844 152.46 844 231 C565.48 231 286.96 231 0 231 C0 154.77 0 78.54 0 0 Z " fill="#FEFEFD" transform="translate(0,0)"/>
<path d="M0 0 C4.62 0 9.24 0 14 0 C14 27.06 14 54.12 14 82 C9.38 82 4.76 82 0 82 C-0.33 80.02 -0.66 78.04 -1 76 C-1.845625 76.763125 -2.69125 77.52625 -3.5625 78.3125 C-9.31314175 83.02000208 -14.72946789 84.57448582 -22.0859375 84.3515625 C-28.50478614 83.57717057 -34.0480417 81.59343534 -39.0625 77.5 C-40.7132427 75.37000942 -41.98627287 73.48823932 -43 71 C-43.66 71 -44.32 71 -45 71 C-49.66723542 62.274299 -50.61687387 52.02361772 -48.38671875 42.3359375 C-45.45119578 35.0165278 -39.8866341 28.14570128 -32.875 24.4375 C-25.65186545 21.70848209 -16.72901667 21.75044599 -9.4375 24.25 C-6 26 -6 26 -1 30 C-0.67 20.1 -0.34 10.2 0 0 Z " fill="#F2643A" transform="translate(680,52)"/>
<path d="M0 0 C6.48556463 5.27440497 10.34624953 13.34733989 11.34375 21.53515625 C11.38748807 26.73451908 11.00935326 31.61126918 9.875 36.6875 C9.215 36.6875 8.555 36.6875 7.875 36.6875 C7.77574219 37.42871094 7.67648437 38.16992188 7.57421875 38.93359375 C6.13662086 44.5956413 1.32697109 48.53802288 -3.125 52.0625 C-10.8136337 56.22717659 -18.8942953 56.70262714 -27.375 55 C-31.125 53.6875 -31.125 53.6875 -37.125 48.6875 C-37.455 58.9175 -37.785 69.1475 -38.125 79.6875 C-42.745 79.6875 -47.365 79.6875 -52.125 79.6875 C-52.125 52.2975 -52.125 24.9075 -52.125 -3.3125 C-47.505 -3.3125 -42.885 -3.3125 -38.125 -3.3125 C-37.795 -1.3325 -37.465 0.6475 -37.125 2.6875 C-36.70089844 2.27757813 -36.27679688 1.86765625 -35.83984375 1.4453125 C-25.43819426 -8.11048857 -11.58302274 -7.23938922 0 0 Z " fill="#F2653B" transform="translate(525.125,80.3125)"/>
<path d="M0 0 C0 0.66 0 1.32 0 2 C1.98 2.66 3.96 3.32 6 4 C6 2.35 6 0.7 6 -1 C10.62 -1 15.24 -1 20 -1 C20 18.14 20 37.28 20 57 C15.38 57 10.76 57 6 57 C6 54.69 6 52.38 6 50 C5.48050781 50.40992188 4.96101563 50.81984375 4.42578125 51.2421875 C3.37970703 52.05042969 3.37970703 52.05042969 2.3125 52.875 C1.62800781 53.40867188 0.94351563 53.94234375 0.23828125 54.4921875 C-6.60070836 59.09925554 -14.07313375 58.77394891 -22 58 C-29.31390258 55.92273573 -34.96728558 51.43118013 -39 45 C-40.03399648 42.27822452 -40.53454033 39.89619351 -41 37 C-41.66 37 -42.32 37 -43 37 C-43.71192107 24.27770682 -43.90873432 14.97161652 -35.171875 4.890625 C-25.62441142 -4.50159527 -11.80680919 -5.34647963 0 0 Z " fill="#F2673F" transform="translate(273,78)"/>
<path d="M0 0 C2.31569448 1.6166169 4.53070051 3.29639419 6.65625 5.15625 C6.98625 3.17625 7.31625 1.19625 7.65625 -0.84375 C11.94625 -0.84375 16.23625 -0.84375 20.65625 -0.84375 C20.65625 18.29625 20.65625 37.43625 20.65625 57.15625 C16.36625 57.15625 12.07625 57.15625 7.65625 57.15625 C7.16125 53.19625 7.16125 53.19625 6.65625 49.15625 C6.181875 49.89875 5.7075 50.64125 5.21875 51.40625 C1.01439348 55.91824236 -3.37371763 57.82583849 -9.50390625 58.5078125 C-17.49739518 58.71349292 -24.68163856 58.13703838 -31.03125 52.96875 C-31.794375 52.040625 -32.5575 51.1125 -33.34375 50.15625 C-33.859375 49.54394531 -34.375 48.93164062 -34.90625 48.30078125 C-41.74582399 39.80063762 -42.24302061 30.68104075 -41.58203125 20.15478516 C-40.74674268 13.14897342 -36.45219336 7.27949525 -31.33984375 2.62890625 C-22.42490631 -3.94825895 -9.7660817 -5.79343829 0 0 Z " fill="#F2663C" transform="translate(769.34375,77.84375)"/>
<path d="M0 0 C3.96 0 7.92 0 12 0 C11 10.71428571 11 10.71428571 10 15 C13.3 14.67 16.6 14.34 20 14 C20.99 9.38 21.98 4.76 23 0 C27.29 0 31.58 0 36 0 C35 5 34 10 33 15 C35.64 15 38.28 15 41 15 C41 18.96 41 22.92 41 27 C37.37 27 33.74 27 30 27 C29.81824219 28.19496094 29.81824219 28.19496094 29.6328125 29.4140625 C27.96836555 39.93848858 27.96836555 39.93848858 26 45 C28.97 45 31.94 45 35 45 C35.02687279 46.81242052 35.04633715 48.62495233 35.0625 50.4375 C35.07410156 51.44683594 35.08570313 52.45617187 35.09765625 53.49609375 C35 56 35 56 34 57 C30.3308423 57.14310287 26.67284559 57.04221662 23 57 C22.34 60.96 21.68 64.92 21 69 C17.04 69 13.08 69 9 69 C8.875 60.375 8.875 60.375 10 57 C6.37 57 2.74 57 -1 57 C-0.979375 58.051875 -0.95875 59.10375 -0.9375 60.1875 C-1 64 -1 64 -2 69 C-5.96 69 -9.92 69 -14 69 C-13.48041715 64.62065881 -12.94324258 60.31196609 -12 56 C-14.97 56 -17.94 56 -21 56 C-21 52.37 -21 48.74 -21 45 C-17.04 45 -13.08 45 -9 45 C-9.061875 44.071875 -9.12375 43.14375 -9.1875 42.1875 C-9.2200387 36.91623039 -7.51906063 32.00024125 -6 27 C-8.97 27 -11.94 27 -15 27 C-15 23.04 -15 19.08 -15 15 C-9.06 14.505 -9.06 14.505 -3 14 C-2.01 9.38 -1.02 4.76 0 0 Z " fill="#F2673E" transform="translate(79,66)"/>
<path d="M0 0 C22.77 0 45.54 0 69 0 C69 4.62 69 9.24 69 14 C50.85 14 32.7 14 14 14 C14 32.15 14 50.3 14 69 C-8.44 69 -30.88 69 -54 69 C-54 64.38 -54 59.76 -54 55 C-36.18 55 -18.36 55 0 55 C0 36.85 0 18.7 0 0 Z " fill="#17B34D" transform="translate(652,144)"/>
<path d="M0 0 C4.62 0 9.24 0 14 0 C14.01458252 1.05912598 14.02916504 2.11825195 14.04418945 3.20947266 C14.10237327 7.15707342 14.17960407 11.10411571 14.26245117 15.05126953 C14.29560636 16.75625512 14.32366737 18.46134798 14.34643555 20.16650391 C14.38015568 22.62448634 14.43247794 25.08149406 14.48828125 27.5390625 C14.49467117 28.29555084 14.5010611 29.05203918 14.50764465 29.83145142 C14.66893209 35.70057453 16.16437737 39.74988194 19.9375 44.375 C24.75765644 46.93263403 29.6526188 46.30702667 35 46 C35 45.34 35 44.68 35 44 C35.78375 43.236875 36.5675 42.47375 37.375 41.6875 C41.98553227 36.96719315 42.31131606 32.45986097 42.4140625 26.07421875 C42.43342865 25.32662796 42.4527948 24.57903717 42.4727478 23.80879211 C42.53223918 21.43514194 42.57880592 19.06144246 42.625 16.6875 C42.66320789 15.07224518 42.70226125 13.45701013 42.7421875 11.84179688 C42.8379153 7.8946929 42.92205767 3.94749361 43 0 C47.62 0 52.24 0 57 0 C57 19.47 57 38.94 57 59 C52.71 59 48.42 59 44 59 C44 56.36 44 53.72 44 51 C43.34 51 42.68 51 42 51 C41.76023437 51.60328125 41.52046875 52.2065625 41.2734375 52.828125 C38.82418658 57.00537503 34.43786211 58.49100806 30 60 C22.77249994 61.18114787 17.03142858 60.38126226 10.8359375 56.43359375 C8.43806098 54.56120932 6.71392281 52.5049641 5 50 C4.46375 49.525625 3.9275 49.05125 3.375 48.5625 C-0.80203989 43.81586377 -0.26591138 37.36714621 -0.1953125 31.4453125 C-0.1924826 30.54376434 -0.18965271 29.64221619 -0.18673706 28.71334839 C-0.17559439 25.85042724 -0.1505008 22.98782566 -0.125 20.125 C-0.11496255 18.17708787 -0.10583804 16.22917081 -0.09765625 14.28125 C-0.07567443 9.5207113 -0.0411855 4.76040973 0 0 Z " fill="#F2653B" transform="translate(408,76)"/>
<path d="M0 0 C0 0.66 0 1.32 0 2 C0.556875 2.226875 1.11375 2.45375 1.6875 2.6875 C6.44269801 5.38639617 9.46397424 8.77759925 11 14 C11.2647151 17.22791324 11.23273297 20.43894727 11.1953125 23.67578125 C11.1924826 24.6009404 11.18965271 25.52609955 11.18673706 26.47929382 C11.17557392 29.42382942 11.15047637 32.36805688 11.125 35.3125 C11.11496521 37.31314664 11.10584023 39.31379806 11.09765625 41.31445312 C11.07564722 46.2097535 11.04114391 51.10482457 11 56 C6.38 56 1.76 56 -3 56 C-3.01458252 55.00669678 -3.02916504 54.01339355 -3.04418945 52.98999023 C-3.10248162 49.27902539 -3.1797103 45.56864785 -3.26245117 41.8581543 C-3.29555592 40.25701481 -3.32363221 38.65576268 -3.34643555 37.05444336 C-3.38024982 34.74284183 -3.43257451 32.43225922 -3.48828125 30.12109375 C-3.49467117 29.41351425 -3.5010611 28.70593475 -3.50764465 27.97691345 C-3.65524712 22.90492309 -4.72065771 19.44403795 -7 15 C-10.07693583 12.10954513 -12.85287813 11.75875811 -16.9375 11.5625 C-21.66194107 11.71739971 -24.45217691 12.71826365 -28 16 C-30.25129541 20.25314923 -30.34050883 24.43392215 -30.4140625 29.14453125 C-30.43342865 29.91431808 -30.4527948 30.68410492 -30.4727478 31.47721863 C-30.53225623 33.92220171 -30.57881295 36.36723262 -30.625 38.8125 C-30.66320631 40.47593134 -30.70225957 42.13934347 -30.7421875 43.80273438 C-30.83793383 47.86833241 -30.92207009 51.93402301 -31 56 C-35.62 56 -40.24 56 -45 56 C-45 37.19 -45 18.38 -45 -1 C-40.71 -1 -36.42 -1 -32 -1 C-31.67 0.98 -31.34 2.96 -31 5 C-30.57589844 4.59007813 -30.15179687 4.18015625 -29.71484375 3.7578125 C-20.70541754 -4.51897905 -10.8206221 -4.72172601 0 0 Z " fill="#F2663D" transform="translate(612,78)"/>
<path d="M0 0 C0.763125 0.61875 1.52625 1.2375 2.3125 1.875 C1.80727778 6.25359255 -0.86577222 8.69151224 -3.6875 11.875 C-6.77741606 11.4068309 -9.0427496 10.70085804 -11.875 9.3125 C-16.29738138 7.32971802 -20.92261418 7.23357306 -25.6875 7.875 C-26.6775 8.535 -27.6675 9.195 -28.6875 9.875 C-28.97821481 13.29089896 -28.77469244 15.61342267 -27.6875 18.875 C-26.79611328 18.92660278 -26.79611328 18.92660278 -25.88671875 18.97924805 C-23.15165888 19.15072099 -20.42015747 19.35636496 -17.6875 19.5625 C-16.75292969 19.61599609 -15.81835938 19.66949219 -14.85546875 19.72460938 C-8.39615052 20.24406504 -3.7115043 21.67503037 1.3125 25.875 C5.24718733 31.0789413 5.99821403 36.42928816 5.3125 42.875 C2.50895524 50.40030436 -2.77688313 54.35686777 -9.6875 57.875 C-19.22043083 60.91912917 -28.75753423 58.81464115 -37.4296875 54.515625 C-44.37441546 50.69897564 -44.37441546 50.69897564 -45.62109375 47.41796875 C-45.70045293 44.37897915 -45.13012113 43.40118726 -43.25 41.0625 C-42.77691406 40.45792969 -42.30382812 39.85335937 -41.81640625 39.23046875 C-41.44386719 38.78316406 -41.07132813 38.33585937 -40.6875 37.875 C-37.76764819 38.55588981 -35.33627696 39.45601234 -32.6875 40.875 C-32.6875 41.535 -32.6875 42.195 -32.6875 42.875 C-28.63535844 43.82844507 -24.78402123 44.07162219 -20.625 44.125 C-18.81322266 44.16367188 -18.81322266 44.16367188 -16.96484375 44.203125 C-13.75679016 44.0426413 -13.75679016 44.0426413 -11.25390625 42.859375 C-8.74943762 39.6866317 -9.42798518 36.83260095 -9.6875 32.875 C-10.24622803 32.83536133 -10.80495605 32.79572266 -11.38061523 32.75488281 C-13.96365781 32.56186776 -16.54399943 32.3435745 -19.125 32.125 C-20.44274414 32.0321875 -20.44274414 32.0321875 -21.78710938 31.9375 C-29.44922127 31.25893658 -35.77694225 29.36110142 -41.6875 24.3125 C-45.13523016 20.11057887 -45.14633156 15.98826111 -45.09765625 10.73828125 C-44.42165719 6.01916398 -42.1280453 3.06475384 -38.6875 -0.125 C-28.64817056 -6.4764125 -10.045798 -6.61896036 0 0 Z " fill="#F2673E" transform="translate(174.6875,79.125)"/>
<path d="M0 0 C4.95 0 9.9 0 15 0 C15 5.28 15 10.56 15 16 C19.95 16 24.9 16 30 16 C30 20.29 30 24.58 30 29 C25.05 29 20.1 29 15 29 C15.11992318 33.21772385 15.24258517 37.43518062 15.37231445 41.65258789 C15.41560793 43.08711003 15.45728699 44.52168184 15.49731445 45.95629883 C15.55515267 48.0191952 15.61880753 50.08184283 15.68359375 52.14453125 C15.72025146 53.38565674 15.75690918 54.62678223 15.79467773 55.90551758 C15.87144121 59.03553347 15.87144121 59.03553347 17 62 C20.96 62 24.92 62 29 62 C29.495 64.475 29.495 64.475 30 67 C30.66 67 31.32 67 32 67 C32 68.98 32 70.96 32 73 C24.55937848 75.76860336 15.8953757 76.66944673 8.5 73.5 C2.6550739 67.6550739 0.566417 63.21928917 0.51171875 54.78125 C0.52694502 51.68577068 0.6030361 48.59424722 0.6875 45.5 C0.71261501 43.89847232 0.73542254 42.29690671 0.75585938 40.6953125 C0.8106014 36.79592864 0.89669147 32.89838715 1 29 C-2.63 29 -6.26 29 -10 29 C-10 25.04 -10 21.08 -10 17 C-6.7 17 -3.4 17 0 17 C0 11.39 0 5.78 0 0 Z " fill="#F26339" transform="translate(366,60)"/>
<path d="M0 0 C4.95 0 9.9 0 15 0 C15 5.28 15 10.56 15 16 C19.95 16 24.9 16 30 16 C30 19.96 30 23.92 30 28 C24.72 28 19.44 28 14 28 C14.09696711 32.21806944 14.19970966 36.43516276 14.31738281 40.65258789 C14.35564866 42.08707068 14.39050581 43.52164865 14.421875 44.95629883 C14.46757862 47.01938878 14.52556193 49.08182495 14.5859375 51.14453125 C14.63306885 53.00621948 14.63306885 53.00621948 14.68115234 54.90551758 C14.77399209 58.16636101 14.77399209 58.16636101 17 61 C19.88595946 61.58481121 19.88595946 61.58481121 23.125 61.6875 C24.22070312 61.75324219 25.31640625 61.81898437 26.4453125 61.88671875 C27.28835937 61.92410156 28.13140625 61.96148437 29 62 C29.67354499 63.43429001 30.33859701 64.87257057 31 66.3125 C31.37125 67.11300781 31.7425 67.91351563 32.125 68.73828125 C33 71 33 71 33 74 C29.4375692 74.05827558 25.87526181 74.09368885 22.3125 74.125 C21.30509766 74.14175781 20.29769531 74.15851563 19.25976562 74.17578125 C18.28330078 74.18222656 17.30683594 74.18867188 16.30078125 74.1953125 C15.40528564 74.20578613 14.50979004 74.21625977 13.5871582 74.22705078 C9.02117054 73.82633657 5.4018282 72.03734661 2 69 C0.72614873 65.1784462 0.87646812 61.5931553 0.90234375 57.61328125 C0.9037587 56.79627243 0.90517365 55.97926361 0.90663147 55.13749695 C0.91222706 52.52912732 0.92477871 49.92084366 0.9375 47.3125 C0.94251557 45.54362103 0.94707838 43.77474072 0.95117188 42.00585938 C0.96219504 37.67053981 0.97945662 33.33528448 1 29 C-2.96 29 -6.92 29 -11 29 C-11 25.04 -11 21.08 -11 17 C-7.37 17 -3.74 17 0 17 C0 11.39 0 5.78 0 0 Z " fill="#F2683F" transform="translate(196,60)"/>
<path d="M0 0 C1.75 1.265625 1.75 1.265625 2.68359375 3.109375 C2.77780717 6.16854018 1.58160478 7.56054081 -0.1875 10.015625 C-0.75339844 10.81484375 -1.31929688 11.6140625 -1.90234375 12.4375 C-2.56943359 13.34242187 -2.56943359 13.34242187 -3.25 14.265625 C-5.56 13.605625 -7.87 12.945625 -10.25 12.265625 C-10.25 11.605625 -10.25 10.945625 -10.25 10.265625 C-17.71410308 10.28018188 -17.71410308 10.28018188 -23.8125 14.140625 C-27.51286175 18.88467853 -27.44457048 22.86512624 -27.56640625 28.65234375 C-27.58718735 29.46935257 -27.60796844 30.28636139 -27.62937927 31.12812805 C-27.69473079 33.73637534 -27.75369273 36.34472275 -27.8125 38.953125 C-27.85569892 40.72201554 -27.89931365 42.49089597 -27.94335938 44.25976562 C-28.05039743 48.59494963 -28.15170544 52.93023429 -28.25 57.265625 C-32.87 57.265625 -37.49 57.265625 -42.25 57.265625 C-42.25 38.125625 -42.25 18.985625 -42.25 -0.734375 C-37.96 -0.734375 -33.67 -0.734375 -29.25 -0.734375 C-28.92 0.915625 -28.59 2.565625 -28.25 4.265625 C-27.38375 3.481875 -26.5175 2.698125 -25.625 1.890625 C-17.7285267 -4.60693928 -8.90424232 -3.89560602 0 0 Z " fill="#F2653B" transform="translate(346.25,77.734375)"/>
<path d="M0 0 C1.21236328 0.01353516 1.21236328 0.01353516 2.44921875 0.02734375 C3.37154297 0.04474609 3.37154297 0.04474609 4.3125 0.0625 C4.3125 0.7225 4.3125 1.3825 4.3125 2.0625 C5.3953125 2.4028125 5.3953125 2.4028125 6.5 2.75 C11.15439706 4.92205196 14.42618014 8.28827451 16.3125 13.0625 C17.78618408 25.06914717 17.78618408 25.06914717 14.375 29.5625 C9.45635458 33.57772075 4.98358967 36.65504564 -1.375 37.625 C-7.85169159 36.52518445 -11.85889632 32.53523606 -15.5546875 27.33984375 C-18.1286036 22.16538483 -16.96460858 16.87910066 -16.125 11.375 C-14.21775017 6.98003301 -11.43583708 4.01775908 -7.6875 1.0625 C-4.80538698 0.10179566 -2.98899956 -0.04331883 0 0 Z " fill="#FEF8F6" transform="translate(261.6875,86.9375)"/>
<path d="M0 0 C5.1958655 -0.30738899 7.96434434 0.74393592 12.046875 4.19140625 C14.95400061 7.12996024 17.65953509 9.93066722 18.046875 14.19140625 C18.170625 15.24328125 18.294375 16.29515625 18.421875 17.37890625 C17.93048324 22.37472248 16.118945 26.22196843 13.046875 30.19140625 C11.71849789 30.86789459 10.38569474 31.53582716 9.046875 32.19140625 C8.716875 33.18140625 8.386875 34.17140625 8.046875 35.19140625 C3.52694131 37.10368589 -1.56527547 36.69103208 -6.078125 35.06640625 C-10.36403433 32.27124799 -13.30237739 29.14364908 -14.953125 24.19140625 C-15.53850009 15.75975355 -15.47762496 9.68818206 -10.140625 2.87890625 C-6.87635224 0.36075298 -3.99431056 0.39144244 0 0 Z " fill="#FEFAF9" transform="translate(757.953125,87.80859375)"/>
<path d="M0 0 C5.28 0 10.56 0 16 0 C16 19.47 16 38.94 16 59 C11.05 59 6.1 59 1 59 C0 58 0 58 -0.12025452 55.67784119 C-0.11803391 54.64969803 -0.11581329 53.62155487 -0.11352539 52.56225586 C-0.11344986 51.40112778 -0.11337433 50.23999969 -0.11329651 49.04368591 C-0.10813522 47.780168 -0.10297394 46.51665009 -0.09765625 45.21484375 C-0.0962413 43.92888809 -0.09482635 42.64293243 -0.09336853 41.31800842 C-0.08954418 37.89356557 -0.07971462 34.46916491 -0.06866455 31.04473877 C-0.05844864 27.55261811 -0.05387053 24.06049066 -0.04882812 20.56835938 C-0.03809226 13.71222047 -0.02049614 6.8561166 0 0 Z " fill="#3862BB" transform="translate(705,76)"/>
<path d="M0 0 C4.41202965 2.54350217 7.5591344 5.36352115 9.65625 10.08203125 C10.66761754 15.86634384 10.51465115 20.61287678 7.09375 25.51953125 C3.36344165 29.75417033 -0.13300919 32.59199768 -5.80078125 33.45703125 C-9.99146586 33.65808359 -12.80475465 33.32610461 -16.65625 31.58203125 C-21.77742499 26.81814754 -24.62162051 22.66471284 -24.90625 15.51953125 C-24.62805754 10.23387443 -23.64682718 7.2320513 -20.34375 3.08203125 C-14.37542512 -1.66826814 -7.24178813 -2.83636702 0 0 Z " fill="#FEFAF8" transform="translate(669.34375,89.91796875)"/>
<path d="M0 0 C4.45493034 2.48448038 7.61111907 4.8958572 9.25 9.8125 C9.36953769 11.78904185 9.42526196 13.76988456 9.4375 15.75 C9.45167969 16.79027344 9.46585938 17.83054687 9.48046875 18.90234375 C9.13288108 23.29137451 8.00250237 25.13524787 4.75 28.0625 C2.25 29.8125 2.25 29.8125 0.25 29.8125 C-0.08 30.8025 -0.41 31.7925 -0.75 32.8125 C-11.45644851 33.43617661 -11.45644851 33.43617661 -16.25 31.125 C-21.28935192 26.46359947 -24.34269703 22.4103429 -25.125 15.5 C-24.52803879 9.62988142 -22.46204009 5.44102594 -18.1875 1.375 C-12.45686059 -2.2984868 -6.31076203 -1.99840798 0 0 Z " fill="#FEF9F8" transform="translate(512.75,90.1875)"/>
<path d="M0 0 C4.62 0 9.24 0 14 0 C14 18.81 14 37.62 14 57 C9.38 57 4.76 57 0 57 C0 38.19 0 19.38 0 0 Z " fill="#F26136" transform="translate(544,77)"/>
<path d="M0 0 C2.03125 0.703125 2.03125 0.703125 4.15625 2.828125 C5.29927268 6.58377094 5.06208313 8.92340351 4.03125 12.703125 C2.46875 15.140625 2.46875 15.140625 0.03125 16.703125 C-3.98478612 17.50303363 -6.93807124 17.32153225 -10.46875 15.203125 C-12.56648583 11.70689862 -12.83368339 8.61077048 -11.96875 4.703125 C-8.7148735 -0.44009914 -5.6696413 -1.02053543 0 0 Z " fill="#2D5AB7" transform="translate(716.96875,51.296875)"/>
<path d="M0 0 C2.89357127 2.59679473 3.86089908 4.16539447 4.5 8 C3.85480459 11.87117244 2.99993115 13.45005852 0 16 C-3.60811828 16.71718744 -6.72370008 16.44214676 -10.1875 15.2421875 C-12 14 -12 14 -12.75 12.01171875 C-13.42800216 5.70841738 -13.42800216 5.70841738 -11.1875 2 C-7.30578972 -1.54899226 -5.08265507 -1.22684778 0 0 Z " fill="#F2663D" transform="translate(555,52)"/>
<path d="M0 0 C3.63 0 7.26 0 11 0 C10.69095829 2.27130656 10.37765093 4.54203305 10.0625 6.8125 C9.88847656 8.07707031 9.71445313 9.34164062 9.53515625 10.64453125 C9 14 9 14 8 17 C4.37 17 0.74 17 -3 17 C-2.36809392 11.2075276 -1.3298475 5.67401601 0 0 Z " fill="#FEF8F6" transform="translate(85,93)"/>
<path d="M0 0 C4.62 0 9.24 0 14 0 C14 19.47 14 38.94 14 59 C9.71 59 5.42 59 1 59 C1 58.67 1 58.34 1 58 C4.63 58 8.26 58 12 58 C12 39.52 12 21.04 12 2 C8.37 2 4.74 2 1 2 C1 12.23 1 22.46 1 33 C0.67 33 0.34 33 0 33 C0 22.11 0 11.22 0 0 Z " fill="#F58160" transform="translate(451,76)"/>
<path d="M0 0 C4.95 0 9.9 0 15 0 C15 5.28 15 10.56 15 16 C19.95 16 24.9 16 30 16 C30 20.29 30 24.58 30 29 C25.05 29 20.1 29 15 29 C15 38.9 15 48.8 15 59 C14.67 59 14.34 59 14 59 C14 48.77 14 38.54 14 28 C18.95 28 23.9 28 29 28 C29 24.7 29 21.4 29 18 C27.39318359 18.01740234 27.39318359 18.01740234 25.75390625 18.03515625 C24.35677257 18.04453299 22.95963701 18.05363331 21.5625 18.0625 C20.85544922 18.07087891 20.14839844 18.07925781 19.41992188 18.08789062 C17.61306441 18.09653588 15.80612397 18.05220011 14 18 C13 17 13 17 12.90234375 13.62109375 C12.90901631 12.22652923 12.92097468 10.83198257 12.9375 9.4375 C12.94201172 8.72658203 12.94652344 8.01566406 12.95117188 7.28320312 C12.96299136 5.52209987 12.98092737 3.76103964 13 2 C9.04 2 5.08 2 1 2 C1 6.95 1 11.9 1 17 C0.67 17 0.34 17 0 17 C0 11.39 0 5.78 0 0 Z " fill="#F7957A" transform="translate(366,60)"/>
<path d="M0 0 C4.62 0 9.24 0 14 0 C14 27.06 14 54.12 14 82 C13.67 82 13.34 82 13 82 C13 55.27 13 28.54 13 1 C9.37 1 5.74 1 2 1 C2 11.56 2 22.12 2 33 C1.01 33 0.02 33 -1 33 C-0.67 22.11 -0.34 11.22 0 0 Z " fill="#F5805E" transform="translate(680,52)"/>
<path d="M0 0 C5.28 0 10.56 0 16 0 C16 0.66 16 1.32 16 2 C11.38 2 6.76 2 2 2 C2.11966605 6.11192929 2.24220982 10.22360851 2.37231445 14.33520508 C2.41571434 15.73489199 2.45738564 17.13463359 2.49731445 18.53442383 C2.55489445 20.54261495 2.61914 22.55061149 2.68359375 24.55859375 C2.72025146 25.76829834 2.75690918 26.97800293 2.79467773 28.22436523 C2.68938266 30.90705456 2.68938266 30.90705456 4 32 C5.84891946 32.23363881 7.70488031 32.41303635 9.5625 32.5625 C10.57441406 32.64628906 11.58632812 32.73007813 12.62890625 32.81640625 C13.80259766 32.90728516 13.80259766 32.90728516 15 33 C15 33.33 15 33.66 15 34 C13.06372231 34.10807131 11.12572244 34.1856225 9.1875 34.25 C8.10855469 34.29640625 7.02960938 34.3428125 5.91796875 34.390625 C3 34 3 34 1.3359375 32.41015625 C-0.46746921 29.15664181 -0.34011068 26.75537318 -0.29296875 23.046875 C-0.28872391 22.38665344 -0.28447906 21.72643188 -0.28010559 21.04620361 C-0.26337435 18.94704609 -0.22573551 16.84886504 -0.1875 14.75 C-0.17244584 13.32293058 -0.15875871 11.89584604 -0.14648438 10.46875 C-0.11604608 6.97849207 -0.05732299 3.49033293 0 0 Z " fill="#FCCCC0" transform="translate(210,88)"/>
<path d="M0 0 C-1.47721422 3.45201639 -3.43794001 5.64961936 -6.125 8.25 C-6.84945312 8.95640625 -7.57390625 9.6628125 -8.3203125 10.390625 C-8.87460937 10.92171875 -9.42890625 11.4528125 -10 12 C-10 8.07290865 -8.72099538 7.1810287 -6.125 4.3125 C-5.04605469 3.10013672 -5.04605469 3.10013672 -3.9453125 1.86328125 C-2 0 -2 0 0 0 Z " fill="#F58160" transform="translate(645,79)"/>
<path d="M0 0 C1.22589844 0.15275391 1.22589844 0.15275391 2.4765625 0.30859375 C3.41628906 0.43427734 3.41628906 0.43427734 4.375 0.5625 C4.375 1.5525 4.375 2.5425 4.375 3.5625 C4.045 3.2325 3.715 2.9025 3.375 2.5625 C1.86030552 2.33057135 0.33745438 2.15034762 -1.1875 2 C-2.01378906 1.91621094 -2.84007812 1.83242188 -3.69140625 1.74609375 C-4.32949219 1.68550781 -4.96757813 1.62492187 -5.625 1.5625 C-5.955 2.5525 -6.285 3.5425 -6.625 4.5625 C-7.285 4.5625 -7.945 4.5625 -8.625 4.5625 C-6.48538859 -0.17521098 -5.07875667 -0.652983 0 0 Z " fill="#708DCD" transform="translate(714.625,51.4375)"/>
<path d="M0 0 C0 0.33 0 0.66 0 1 C-1.093125 1.103125 -2.18625 1.20625 -3.3125 1.3125 C-6.98536808 1.99727202 -7.75237686 2.27919304 -10 5 C-10.66 5 -11.32 5 -12 5 C-9.30839269 -1.21140148 -6.29369588 -1.18748979 0 0 Z " fill="#F58869" transform="translate(555,52)"/>
<path d="M0 0 C-1.5830577 4.2742558 -4.50568404 6.26531794 -8 9 C-6.68994234 5.06982701 -4.75047804 0 0 0 Z " fill="#FCDFD7" transform="translate(752,89)"/>
<path d="M0 0 C0.66 0.33 1.32 0.66 2 1 C-0.64 3.64 -3.28 6.28 -6 9 C-6.33 8.34 -6.66 7.68 -7 7 C-4.78071806 4.09197539 -3.07030857 2.04687238 0 0 Z " fill="#FDDFD6" transform="translate(497,90)"/>
</svg>
