<?xml version="1.0" encoding="UTF-8"?>
<svg version="1.1" xmlns="http://www.w3.org/2000/svg" width="855" height="283">
<path d="M0 0 C282.15 0 564.3 0 855 0 C855 93.39 855 186.78 855 283 C572.85 283 290.7 283 0 283 C0 189.61 0 96.22 0 0 Z " fill="#FDFDFD" transform="translate(0,0)"/>
<path d="M0 0 C0.99 0 1.98 0 3 0 C6.74679489 9.31420404 10.47924631 18.63395513 14.19064331 27.96232605 C15.91576557 32.29462028 17.65459296 36.62073948 19.41537476 40.93865967 C20.58149158 43.80810345 21.7263716 46.68602032 22.875 49.5625 C23.29700684 50.58134277 23.71901367 51.60018555 24.15380859 52.64990234 C27.0404795 59.96516977 28.56752256 66.54580738 25.890625 74.15234375 C25.34921875 75.07144531 24.8078125 75.99054688 24.25 76.9375 C23.28320312 78.60039062 23.28320312 78.60039062 22.296875 80.296875 C19.25617666 85.24672432 16.13142499 90.14514316 12.99414062 95.03417969 C5.92901119 106.11458455 -0.50241767 117.58110069 -7 129 C-9.81640625 128.80712891 -9.81640625 128.80712891 -13 128 C-14.65234375 125.89990234 -14.65234375 125.89990234 -15.9375 123.0859375 C-16.4334668 122.02874512 -16.92943359 120.97155273 -17.44042969 119.88232422 C-17.95508789 118.72490723 -18.46974609 117.56749023 -19 116.375 C-19.54817383 115.1905127 -20.09634766 114.00602539 -20.66113281 112.78564453 C-22.15337433 109.55765699 -23.61564467 106.31695286 -25.07006836 103.07177734 C-26.67723523 99.49120028 -28.30129802 95.91827206 -29.921875 92.34375 C-31.82275467 88.14824722 -33.7187181 83.95078032 -35.59375 79.74365234 C-35.88163391 79.09924194 -36.16951782 78.45483154 -36.46612549 77.79089355 C-37.24839334 76.03830552 -38.02809053 74.28457072 -38.80761719 72.53076172 C-39.77076077 70.11647843 -39.77076077 70.11647843 -41 69 C-42.30044551 64.10043418 -42.30295907 59.45072275 -39.88085938 54.89501953 C-36.77826169 50.10636586 -33.24928501 45.63749877 -29.70556641 41.17041016 C-27.30840251 38.11991102 -25.0528564 34.97899156 -22.8125 31.8125 C-22.41530762 31.25755859 -22.01811523 30.70261719 -21.60888672 30.13085938 C-18.1183966 25.23422069 -14.80030602 20.22797328 -11.4855957 15.21142578 C-4.15856977 4.15856977 -4.15856977 4.15856977 0 0 Z " fill="#040404" transform="translate(159,68)"/>
<path d="M0 0 C16.52728639 0.22731387 32.87394776 1.18571289 49.3125 2.875 C50.13582825 2.95609009 50.95915649 3.03718018 51.80743408 3.12072754 C54.18170051 3.3572118 56.55373718 3.60945401 58.92578125 3.8671875 C59.97272408 3.9704686 59.97272408 3.9704686 61.04081726 4.07583618 C66.99505719 4.75950058 72.87909367 5.74311591 77.09057617 10.22460938 C77.59049072 11.08892578 78.09040527 11.95324219 78.60546875 12.84375 C79.17442871 13.82472656 79.74338867 14.80570313 80.32958984 15.81640625 C83.2004697 21.28794576 85.79232704 26.85966849 88.3125 32.5 C89.43332753 34.97187377 90.56244464 37.43987327 91.6953125 39.90625 C91.97350327 40.51227051 92.25169403 41.11829102 92.53831482 41.74267578 C96.07758715 49.40145876 100.0206435 56.84242568 104.0612793 64.24609375 C104.37105713 64.82488281 104.68083496 65.40367187 105 66 C105.55071167 67.01513672 105.55071167 67.01513672 106.11254883 68.05078125 C107.21368352 70.46933954 107.14593605 72.37315105 107 75 C94.85775743 75.65437235 83.01782064 73.48457294 71.1796875 70.98828125 C64.37216746 69.60589609 57.47416842 68.94909979 50.5703125 68.23242188 C43.37265726 67.40788036 37.51010217 66.28635834 32.34472656 60.75878906 C29.04791517 56.44683749 26.52501379 51.59848106 23.875 46.875 C23.21121552 45.70589851 22.54657457 44.53728291 21.88110352 43.36914062 C20.54596155 41.02378358 19.21454286 38.67637984 17.88623047 36.32714844 C15.26416378 31.70204814 12.60384791 27.09966147 9.9375 22.5 C9.4955127 21.73212158 9.05352539 20.96424316 8.59814453 20.1730957 C5.80549433 15.33225227 2.90946859 10.57449778 -0.171875 5.91015625 C-1.2114192 3.51233968 -0.71814581 2.44773327 0 0 Z " fill="#050505" transform="translate(36,126)"/>
<path d="M0 0 C24.09 0 48.18 0 73 0 C70.954602 8.18159201 66.35940478 14.64992926 61.5 21.4375 C60.88487549 22.30568359 60.26975098 23.17386719 59.63598633 24.06835938 C58.37221631 25.85158716 57.10634995 27.63333114 55.83837891 29.41357422 C54.12614071 31.82253191 52.42549195 34.23906603 50.73046875 36.66015625 C46.19699071 43.1322502 41.63569851 49.58357876 36.9375 55.9375 C36.24527344 56.87464844 35.55304688 57.81179687 34.83984375 58.77734375 C32.72716062 61.32960851 31.1273227 62.86988653 27.7578125 63.25878906 C26.45457031 63.26217285 26.45457031 63.26217285 25.125 63.265625 C24.14990479 63.26957275 23.17480957 63.27352051 22.17016602 63.27758789 C21.12401123 63.26848389 20.07785645 63.25937988 19 63.25 C17.91710693 63.24540771 16.83421387 63.24081543 15.71850586 63.23608398 C8.51572804 63.15601188 1.4675457 62.68185369 -5.67456055 61.7800293 C-13.61062929 60.81463839 -21.56096741 60.62806062 -29.55053711 60.51782227 C-35.17957201 60.37737684 -39.222232 60.08375731 -44 57 C-42.58801048 51.04346144 -39.32593444 47.3434953 -35.4375 42.8125 C-34.16133279 41.29567853 -32.88529104 39.7787515 -31.609375 38.26171875 C-30.98869141 37.53001465 -30.36800781 36.79831055 -29.72851562 36.04443359 C-27.51716567 33.42891883 -25.34947351 30.78146745 -23.1875 28.125 C-21.03846834 25.49442606 -18.88879525 22.86444525 -16.734375 20.23828125 C-15.97640625 19.31402344 -15.2184375 18.38976562 -14.4375 17.4375 C-13.70273438 16.54289062 -12.96796875 15.64828125 -12.2109375 14.7265625 C-10.69806845 12.86086887 -9.20405591 10.97976926 -7.7265625 9.0859375 C-7.01242188 8.17070313 -6.29828125 7.25546875 -5.5625 6.3125 C-4.60537109 5.06919922 -4.60537109 5.06919922 -3.62890625 3.80078125 C-3.09136719 3.20652344 -2.55382812 2.61226563 -2 2 C-1.34 2 -0.68 2 0 2 C0 1.34 0 0.68 0 0 Z " fill="#040404" transform="translate(81,64)"/>
<path d="M0 0 C6.26977989 3.76438592 12.11549725 9.97450754 13.9453125 17.16796875 C14.99856164 26.96538005 14.64392343 36.30027216 8.296875 44.2265625 C4.1515359 48.58007365 0.37545107 51.88372704 -5.76171875 52.6015625 C-7.13010185 52.61868375 -8.49877056 52.61962923 -9.8671875 52.60546875 C-10.54072266 52.62544922 -11.21425781 52.64542969 -11.90820312 52.66601562 C-18.03960308 52.66014826 -19.97466731 51.20797885 -26.0546875 48.16796875 C-26.0546875 57.73796875 -26.0546875 67.30796875 -26.0546875 77.16796875 C-30.6746875 77.16796875 -35.2946875 77.16796875 -40.0546875 77.16796875 C-40.0546875 51.75796875 -40.0546875 26.34796875 -40.0546875 0.16796875 C-35.4346875 0.16796875 -30.8146875 0.16796875 -26.0546875 0.16796875 C-26.0546875 1.15796875 -26.0546875 2.14796875 -26.0546875 3.16796875 C-25.44882812 2.80703125 -24.84296875 2.44609375 -24.21875 2.07421875 C-16.17953479 -2.37826967 -8.66262852 -3.73510096 0 0 Z " fill="#0D0D0D" transform="translate(383.0546875,105.83203125)"/>
<path d="M0 0 C3.96 0 7.92 0 12 0 C14.60666135 5.50295175 16.7995428 11.05070808 18.75 16.8125 C18.97260498 17.45840088 19.19520996 18.10430176 19.42456055 18.76977539 C20.52035509 22.07091556 21 24.47168029 21 28 C21.66 28 22.32 28 23 28 C23.12834229 27.26789307 23.25668457 26.53578613 23.38891602 25.78149414 C23.96271901 23.16969329 24.73164243 20.95005221 25.77734375 18.49609375 C26.12603516 17.67302734 26.47472656 16.84996094 26.83398438 16.00195312 C27.19814453 15.15568359 27.56230469 14.30941406 27.9375 13.4375 C28.29779297 12.58736328 28.65808594 11.73722656 29.02929688 10.86132812 C30.59762193 7.17879693 32.20842339 3.58315323 34 0 C38.29 0 42.58 0 47 0 C48.68400895 3.99350693 50.35052511 7.99222181 52 12 C52.47695313 13.14855469 52.95390625 14.29710938 53.4453125 15.48046875 C53.89648438 16.60066406 54.34765625 17.72085938 54.8125 18.875 C55.44091797 20.41800781 55.44091797 20.41800781 56.08203125 21.9921875 C57.04739963 25.15530944 57.17170977 27.7129844 57 31 C57.99 31 58.98 31 60 31 C59.89365234 29.1128125 59.89365234 29.1128125 59.78515625 27.1875 C59.78629562 21.37216512 61.49749633 16.4289731 63.4375 11 C63.92573242 9.57107422 63.92573242 9.57107422 64.42382812 8.11328125 C66.82349884 1.17650116 66.82349884 1.17650116 68 0 C70.35313555 -0.07271741 72.70833668 -0.08370868 75.0625 -0.0625 C76.99802734 -0.04896484 76.99802734 -0.04896484 78.97265625 -0.03515625 C79.97167969 -0.02355469 80.97070312 -0.01195313 82 0 C77.99273119 13.23300665 73.92057136 26.44021895 69.5625 39.5625 C69.05009766 41.11324219 69.05009766 41.11324219 68.52734375 42.6953125 C68.21023438 43.64277344 67.893125 44.59023437 67.56640625 45.56640625 C67.28740479 46.40115479 67.00840332 47.23590332 66.72094727 48.09594727 C66 50 66 50 65 51 C62.81360547 51.07258946 60.62499611 51.08373783 58.4375 51.0625 C56.64119141 51.04896484 56.64119141 51.04896484 54.80859375 51.03515625 C53.88175781 51.02355469 52.95492187 51.01195312 52 51 C49.18446381 44.30998701 46.41015278 37.60332918 43.6875 30.875 C43.42114746 30.22394287 43.15479492 29.57288574 42.88037109 28.90209961 C41 24.23080346 41 24.23080346 41 22 C37.95270849 23.52364576 37.78656925 25.81082624 36.65234375 28.96875 C36.21212891 30.17917969 35.77191406 31.38960937 35.31835938 32.63671875 C34.85765592 33.92433004 34.39737456 35.21209243 33.9375 36.5 C33.03367164 39.01179107 32.12486166 41.52168518 31.21484375 44.03125 C30.61337524 45.71057617 30.61337524 45.71057617 29.99975586 47.42382812 C29 50 29 50 28 51 C25.64686445 51.07271741 23.29166332 51.08370868 20.9375 51.0625 C19.64714844 51.05347656 18.35679687 51.04445312 17.02734375 51.03515625 C16.02832031 51.02355469 15.02929688 51.01195312 14 51 C10.279403 40.75595625 6.84667156 30.52797954 4 20 C3.62319112 18.65732864 3.2455604 17.3148877 2.8671875 15.97265625 C2.49419765 14.62776877 2.12178792 13.28272024 1.75 11.9375 C1.41484375 10.72964844 1.0796875 9.52179688 0.734375 8.27734375 C0 5 0 5 0 0 Z " fill="#0A0A0A" transform="translate(227,106)"/>
<path d="M0 0 C6.05552829 3.75190036 10.76779946 9.19024535 13 16 C14.30615893 25.31649645 12.83946787 32.55670378 7.45703125 40.1875 C2.84662915 45.92676486 -2.10822286 48.70274095 -9 51 C-18.70864057 51.80390017 -25.39029457 49.72666765 -33.0703125 43.75 C-37.98397891 39.29388148 -41.70840692 34.47412332 -42.2734375 27.7421875 C-42.4839038 19.72827833 -42.39108807 13.37695835 -37 7 C-25.39412702 -5.09656247 -15.38317604 -6.57334198 0 0 Z " fill="#0C0C0C" transform="translate(485,108)"/>
<path d="M0 0 C1.65 0 3.3 0 5 0 C5 23.76 5 47.52 5 72 C3.35 72 1.7 72 0 72 C0 69.69 0 67.38 0 65 C-0.99 65.33 -1.98 65.66 -3 66 C-3.495 67.485 -3.495 67.485 -4 69 C-5.7421875 70.1328125 -5.7421875 70.1328125 -7.875 71.125 C-8.57367187 71.45757812 -9.27234375 71.79015625 -9.9921875 72.1328125 C-15.29619941 74.42365033 -20.62203548 75.10792419 -26.19140625 73.28125 C-30.582496 71.21485482 -33.78150579 68.67827909 -37 65 C-37.556875 64.38125 -38.11375 63.7625 -38.6875 63.125 C-43.75585141 54.91909772 -43.13881095 43.23702216 -42 34 C-40.6909356 30.10267138 -38.97937054 27.788148 -36 25 C-35.34644531 24.31421875 -34.69289063 23.6284375 -34.01953125 22.921875 C-29.92629575 19.1343274 -26.6701704 17.5284565 -21.0625 17.3125 C-14.57794087 17.70273595 -7.7075393 19.2924607 -3 24 C-3 24.99 -3 25.98 -3 27 C-2.01 27 -1.02 27 0 27 C0 18.09 0 9.18 0 0 Z " fill="#F5F5F5" transform="translate(578,86)"/>
<path d="M0 0 C4.28371914 3.90941358 8.15430784 8.46292351 10 14 C10 17.63 10 21.26 10 25 C-4.52 25 -19.04 25 -34 25 C-30.68599969 34.68922415 -30.68599969 34.68922415 -24.41015625 42.0703125 C-17.92681208 44.57118108 -9.58021509 44.10232938 -3.03125 42.0859375 C-0.65784931 41.05508189 -0.65784931 41.05508189 1.3984375 39.875 C3 39 3 39 5 39 C5.495 41.475 5.495 41.475 6 44 C-1.29310602 49.86619397 -9.09695254 52.76202686 -18.5546875 52.40625 C-25.65094475 51.22731908 -31.07121536 46.77291794 -35.4921875 41.29296875 C-40.33862209 33.92287262 -42.27944876 25.736438 -41 17 C-39.29316146 11.12190363 -36.67527184 7.00737586 -32 3 C-31.05125 2.113125 -30.1025 1.22625 -29.125 0.3125 C-20.53317583 -6.04544989 -8.81195784 -5.85284027 0 0 Z " fill="#1D1D1D" transform="translate(708,108)"/>
<path d="M0 0 C2.31 0 4.62 0 7 0 C7 23.76 7 47.52 7 72 C4.69 72 2.38 72 0 72 C-0.66 70.68 -1.32 69.36 -2 68 C-2.59167969 68.34933594 -3.18335938 68.69867188 -3.79296875 69.05859375 C-4.58316406 69.51363281 -5.37335937 69.96867187 -6.1875 70.4375 C-6.96480469 70.88996094 -7.74210938 71.34242188 -8.54296875 71.80859375 C-13.60040085 74.26092569 -19.54778521 75.06902904 -24.98046875 73.38671875 C-31.08991971 70.70423254 -36.15351202 66.24356122 -38.8449707 60.05810547 C-42.08599528 51.21894753 -43.17364575 39.9582559 -39.8984375 30.98046875 C-38.43717371 28.68698789 -36.94796468 26.8924306 -35 25 C-34.4121875 24.39800781 -33.824375 23.79601562 -33.21875 23.17578125 C-27.52481387 17.81898608 -21.74410088 17.55693799 -14.09375 17.56640625 C-9.12942402 18.26216406 -5.75510148 20.81385329 -2 24 C-1.04831317 21.14493951 -0.8099054 19.09062718 -0.68359375 16.11328125 C-0.62075195 14.7065918 -0.62075195 14.7065918 -0.55664062 13.27148438 C-0.51732422 12.29501953 -0.47800781 11.31855469 -0.4375 10.3125 C-0.37272461 8.83040039 -0.37272461 8.83040039 -0.30664062 7.31835938 C-0.20058346 4.87904454 -0.09852286 2.43962887 0 0 Z M-32.58203125 32.0625 C-36.61811096 37.57736373 -35.37388568 45.48079331 -35 52 C-33.92188131 57.62828889 -31.35172834 61.28510996 -27 65 C-26.38382813 65.53109375 -25.76765625 66.0621875 -25.1328125 66.609375 C-21.33328461 69.08672286 -17.36986586 68.58307594 -13 68 C-7.63605466 66.35020609 -3.08180145 63.87816666 1 60 C1.74798229 57.21688715 1.74798229 57.21688715 1.62890625 54.1328125 C1.63083984 52.99972656 1.63277344 51.86664063 1.63476562 50.69921875 C1.59899414 48.92998047 1.59899414 48.92998047 1.5625 47.125 C1.57893555 45.36736328 1.57893555 45.36736328 1.59570312 43.57421875 C1.53629586 34.95031709 1.53629586 34.95031709 -3 28 C-14.17367949 19.8287718 -23.86272905 21.89960472 -32.58203125 32.0625 Z " fill="#1D1D1D" transform="translate(806,86)"/>
<path d="M0 0 C1.65 0 3.3 0 5 0 C5 23.76 5 47.52 5 72 C3.35 72 1.7 72 0 72 C0 69.69 0 67.38 0 65 C-0.99 65.33 -1.98 65.66 -3 66 C-3.495 67.485 -3.495 67.485 -4 69 C-5.7421875 70.1328125 -5.7421875 70.1328125 -7.875 71.125 C-8.57367187 71.45757812 -9.27234375 71.79015625 -9.9921875 72.1328125 C-15.29619941 74.42365033 -20.62203548 75.10792419 -26.19140625 73.28125 C-30.582496 71.21485482 -33.78150579 68.67827909 -37 65 C-37.556875 64.38125 -38.11375 63.7625 -38.6875 63.125 C-43.75585141 54.91909772 -43.13881095 43.23702216 -42 34 C-40.6909356 30.10267138 -38.97937054 27.788148 -36 25 C-35.34644531 24.31421875 -34.69289063 23.6284375 -34.01953125 22.921875 C-29.92629575 19.1343274 -26.6701704 17.5284565 -21.0625 17.3125 C-14.57794087 17.70273595 -7.7075393 19.2924607 -3 24 C-3 24.99 -3 25.98 -3 27 C-2.01 27 -1.02 27 0 27 C0 18.09 0 9.18 0 0 Z M-33.375 31.125 C-37.45454299 38.34265298 -37.16519591 49.11250063 -35 57 C-32.36275428 61.36819337 -29.40882482 65.32552906 -25 68 C-18.47516139 69.04808431 -10.75406688 68.45244013 -5 65 C-1.66227877 62.17060988 -0.25539578 60.51433752 0.47705078 56.17138672 C0.67392745 52.7669111 0.68169864 49.40947824 0.625 46 C0.64433594 44.83726562 0.66367187 43.67453125 0.68359375 42.4765625 C0.75933186 35.45471884 0.75933186 35.45471884 -2.2421875 29.3359375 C-7.83490148 24.59876617 -14.52005988 22.17273717 -21.8984375 22.55078125 C-27.14132297 23.67147238 -30.22867807 26.98510272 -33.375 31.125 Z " fill="#161616" transform="translate(578,86)"/>
<path d="M0 0 C0.66 0.33 1.32 0.66 2 1 C1.343621 5.48525648 0.29925791 9.66914029 -1 14 C-2.21236328 14.03867188 -2.21236328 14.03867188 -3.44921875 14.078125 C-10.12233923 14.36257784 -10.12233923 14.36257784 -16.1875 16.875 C-19.37339682 20.61018937 -19.17637616 24.11444985 -19.31640625 28.85546875 C-19.33718735 29.51710526 -19.35796844 30.17874176 -19.37937927 30.86042786 C-19.44464727 32.96934852 -19.50365344 35.07839135 -19.5625 37.1875 C-19.60570689 38.61915315 -19.64932188 40.05079404 -19.69335938 41.48242188 C-19.80030506 44.98815154 -19.90163641 48.49401786 -20 52 C-23.96 52 -27.92 52 -32 52 C-32 35.17 -32 18.34 -32 1 C-28.04 1 -24.08 1 -20 1 C-19.67 1.99 -19.34 2.98 -19 4 C-18.5153125 3.6390625 -18.030625 3.278125 -17.53125 2.90625 C-11.48554068 -1.27924107 -7.21802271 -2.40600757 0 0 Z " fill="#070707" transform="translate(439,105)"/>
<path d="M0 0 C5.66769806 3.5524806 5.66769806 3.5524806 6.80078125 6.98828125 C6.89101563 7.58125 6.98125 8.17421875 7.07421875 8.78515625 C5.07421875 9.53515625 5.07421875 9.53515625 2.07421875 9.78515625 C0.34765625 8.9609375 0.34765625 8.9609375 -1.55078125 7.84765625 C-6.58111745 5.12804159 -11.32202093 4.83168061 -16.92578125 5.78515625 C-21.40250279 7.6518335 -25.06089069 11.08920346 -27.265625 15.44140625 C-29.53704175 23.50560774 -28.91152947 32.46859137 -25.19140625 39.953125 C-23.56043885 42.31400064 -22.2193078 44.01971901 -19.92578125 45.78515625 C-16.36768418 46.38229766 -16.36768418 46.38229766 -12.48828125 46.22265625 C-11.19019531 46.22136719 -9.89210938 46.22007812 -8.5546875 46.21875 C-4.79718516 45.76979116 -3.02178409 44.84194135 0.07421875 42.78515625 C3.38671875 42.59765625 3.38671875 42.59765625 6.07421875 42.78515625 C6.56921875 44.76515625 6.56921875 44.76515625 7.07421875 46.78515625 C0.4479775 52.52669499 -4.89996815 54.25612329 -13.48828125 55.16015625 C-19.81583115 54.46987808 -25.3870335 51.20123514 -29.92578125 46.78515625 C-36.66232363 37.65949128 -37.90386883 29.02712584 -36.92578125 17.78515625 C-36.04727429 14.69376147 -34.80356469 12.37562977 -32.92578125 9.78515625 C-32.22453125 8.73328125 -31.52328125 7.68140625 -30.80078125 6.59765625 C-23.18395965 -1.77625906 -10.42647998 -4.32928608 0 0 Z " fill="#1C1C1C" transform="translate(652.92578125,105.21484375)"/>
<path d="M0 0 C4.29 0 8.58 0 13 0 C13 16.83 13 33.66 13 51 C8.71 51 4.42 51 0 51 C0 34.17 0 17.34 0 0 Z " fill="#0A0A0A" transform="translate(318,106)"/>
<path d="M0 0 C3.60448342 1.6867134 5.90554815 3.60573928 8 7 C9.05165465 12.21015835 9.08703308 16.93103372 6.5859375 21.69140625 C1.80577954 28.64971501 1.80577954 28.64971501 -2.3359375 29.453125 C-6.60301589 29.63252169 -9.4694796 29.2456113 -13.375 27.4375 C-17.77006875 23.35636473 -20.15526107 19.50988928 -20.75 13.5625 C-20.59142791 9.36033969 -19.03342079 7.45601313 -16.125 4.5 C-10.98415077 -0.14334769 -6.89785583 -1.16301058 0 0 Z " fill="#F3F3F3" transform="translate(375,117)"/>
<path d="M0 0 C4.68526744 0.93981766 7.50528156 4.10906716 10.6484375 7.53125 C10.9784375 7.86125 11.3084375 8.19125 11.6484375 8.53125 C12.35234843 14.45102553 11.98671397 19.68559064 8.96875 24.8984375 C6.57455488 27.85930603 4.28957856 28.63588744 0.6484375 29.53125 C-4.09963298 29.78767889 -7.96642076 29.2274812 -11.7890625 26.28125 C-15.96850486 21.79599478 -16.91935642 17.84793691 -16.80859375 11.81640625 C-15.99713168 7.75909592 -13.38715592 5.19754982 -10.3515625 2.53125 C-6.64905031 0.06290854 -4.36389737 -0.05118941 0 0 Z " fill="#F2F2F2" transform="translate(472.3515625,116.46875)"/>
<path d="M0 0 C1.23463221 1.07467985 2.44604978 2.17701338 3.625 3.3125 C4.45 4.075625 5.275 4.83875 6.125 5.625 C7.625 8.3125 7.625 8.3125 7.625 17.3125 C-4.585 17.3125 -16.795 17.3125 -29.375 17.3125 C-27.4899221 8.82964944 -26.26764653 5.11794035 -20.375 -0.6875 C-14.06352861 -4.193873 -5.88425267 -4.27047442 0 0 Z " fill="#EDEDED" transform="translate(703.375,111.6875)"/>
<path d="M0 0 C5.19662478 -0.06891398 10.39166106 -0.12863294 15.58837891 -0.16479492 C17.35568619 -0.17987102 19.12295614 -0.20033522 20.89013672 -0.22631836 C23.43205995 -0.26275402 25.97348806 -0.27973794 28.515625 -0.29296875 C29.30430969 -0.30845261 30.09299438 -0.32393646 30.90557861 -0.33988953 C34.14894661 -0.34088204 36.58645495 -0.20918997 39.50585938 1.26757812 C41.31384139 3.36389191 41.47294971 4.27442212 41.390625 7.01171875 C41.37773438 7.76904297 41.36484375 8.52636719 41.3515625 9.30664062 C41.31804688 10.09232422 41.28453125 10.87800781 41.25 11.6875 C41.23195313 12.48478516 41.21390625 13.28207031 41.1953125 14.10351562 C41.14822247 16.06952449 41.07647899 18.03491494 41 20 C39.35 20 37.7 20 36 20 C36 15.05 36 10.1 36 5 C34.02 5 32.04 5 30 5 C29.67 9.95 29.34 14.9 29 20 C27.68 20 26.36 20 25 20 C24.67 15.05 24.34 10.1 24 5 C22.35 5 20.7 5 19 5 C19.01160156 5.66386719 19.02320313 6.32773438 19.03515625 7.01171875 C19.12478032 15.78207381 19.12478032 15.78207381 18 20 C16.02 20 14.04 20 12 20 C12 14.72 12 9.44 12 4 C10.02 4.33 8.04 4.66 6 5 C6 9.95 6 14.9 6 20 C4.02 20 2.04 20 0 20 C0 13.4 0 6.8 0 0 Z " fill="#595959" transform="translate(615,203)"/>
<path d="M0 0 C1.98 0 3.96 0 6 0 C7 1 7 1 7.0625 4.0625 C7.041875 5.031875 7.02125 6.00125 7 7 C8.216875 6.896875 9.43375 6.79375 10.6875 6.6875 C14.06239186 6.7174724 14.99390469 6.99619043 18 8.875 C20.84196355 13.31556804 20.94025131 16.87358633 20 22 C18.02158273 26.58992806 18.02158273 26.58992806 15 28 C9.83262087 28.50574349 5.25767396 28.27431342 0 28 C0 18.76 0 9.52 0 0 Z " fill="#282828" transform="translate(443,196)"/>
<path d="M0 0 C13 0 13 0 16.8125 1.875 C19.47334145 5.67620208 19.82130116 8.05115695 19.5078125 12.6171875 C19 15 19 15 17.0625 18.125 C12.94613247 20.64522502 9.70278047 20.46105691 5 20 C5 22.31 5 24.62 5 27 C3.35 27 1.7 27 0 27 C0 18.09 0 9.18 0 0 Z " fill="#2F2F2F" transform="translate(521,203)"/>
<path d="M0 0 C1.65 0 3.3 0 5 0 C5 23.76 5 47.52 5 72 C3.35 72 1.7 72 0 72 C0 69.69 0 67.38 0 65 C-1.32 65 -2.64 65 -4 65 C-2.125 60.125 -2.125 60.125 -1 59 C-0.74535809 54.7562534 -0.81476571 50.50047323 -0.8125 46.25 C-0.79413086 44.45949219 -0.79413086 44.45949219 -0.77539062 42.6328125 C-0.77345703 41.48039062 -0.77152344 40.32796875 -0.76953125 39.140625 C-0.76542236 38.08391602 -0.76131348 37.02720703 -0.75708008 35.93847656 C-1.00667467 32.91925994 -1.72743032 30.73238394 -3 28 C-2.01 28 -1.02 28 0 28 C0 18.76 0 9.52 0 0 Z " fill="#1D1D1D" transform="translate(578,86)"/>
<path d="M0 0 C0 5.28 0 10.56 0 16 C0.66 16 1.32 16 2 16 C2 17.98 2 19.96 2 22 C1.34 22 0.68 22 0 22 C0 23.65 0 25.3 0 27 C-2.31 27 -4.62 27 -7 27 C-7 25.02 -7 23.04 -7 21 C-10.96 21 -14.92 21 -19 21 C-18.01874379 13.1499503 -16.78049928 7.61573445 -11 2 C-6.45804312 -1.05886892 -5.57432023 -1.11486405 0 0 Z " fill="#202020" transform="translate(483,196)"/>
<path d="M0 0 C3.125 2 3.125 2 5 5 C5.44166744 10.30000931 4.20191096 14.73078539 1 19 C-0.64156736 20.64156736 -2.49215801 20.28815992 -4.75 20.375 C-8.50790413 20.31586274 -9.79383002 20.13043407 -13.0625 18.0625 C-15.59424145 14.06071512 -16.29946343 10.71441 -16 6 C-14.78197545 2.98699189 -13.91914128 1.56712973 -11.1640625 -0.1328125 C-7.37613799 -1.65071727 -3.87266366 -1.03867178 0 0 Z " fill="#3C3C3C" transform="translate(608,204)"/>
<path d="M0 0 C5.94 0 11.88 0 18 0 C18 1.32 18 2.64 18 4 C13.71 4 9.42 4 5 4 C5.33 5.65 5.66 7.3 6 9 C6.90492188 8.96519531 6.90492188 8.96519531 7.828125 8.9296875 C9.02695312 8.90261719 9.02695312 8.90261719 10.25 8.875 C11.03890625 8.85179687 11.8278125 8.82859375 12.640625 8.8046875 C15.24614317 9.02037609 16.79986977 9.6078822 19 11 C20.53214888 14.06429776 20.22938548 16.6165642 20 20 C18.69600069 23.08841941 17.72611897 24.55151476 14.875 26.3125 C10.87373998 27.26932305 7.08292254 27.65509578 3 27 C0.4375 25 0.4375 25 -1 23 C-0.505 21.515 -0.505 21.515 0 20 C0.68707031 20.10699219 1.37414062 20.21398437 2.08203125 20.32421875 C2.98308594 20.44410156 3.88414062 20.56398437 4.8125 20.6875 C6.15248047 20.87892578 6.15248047 20.87892578 7.51953125 21.07421875 C10.02368634 21.22031421 10.02368634 21.22031421 11.82421875 19.76953125 C13.3689511 17.79882598 13.3689511 17.79882598 13 14 C6.565 14.495 6.565 14.495 0 15 C0 10.05 0 5.1 0 0 Z " fill="#1F1F1F" transform="translate(489,197)"/>
<path d="M0 0 C1.98 0 3.96 0 6 0 C6 17.16 6 34.32 6 52 C4.02 52 2.04 52 0 52 C0 34.84 0 17.68 0 0 Z " fill="#202020" transform="translate(747,106)"/>
<path d="M0 0 C1.16982422 -0.03867188 1.16982422 -0.03867188 2.36328125 -0.078125 C5.48663031 0.3628184 6.63915513 0.80220466 8.6875 3.25 C9.18314846 6.32480588 9.06233256 9.33349037 8.9375 12.4375 C8.91945313 13.28248047 8.90140625 14.12746094 8.8828125 14.99804688 C8.83570586 17.08251573 8.76396233 19.16640144 8.6875 21.25 C6.24815775 21.38501894 3.81625896 21.48403897 1.375 21.5625 C0.68470703 21.60439453 -0.00558594 21.64628906 -0.71679688 21.68945312 C-2.73828125 21.73828125 -2.73828125 21.73828125 -6.3125 21.25 C-8.70178362 18.41719667 -9.25478657 16.74056413 -9.6875 13.0625 C-9.56375 12.134375 -9.44 11.20625 -9.3125 10.25 C-6.10869983 8.11413322 -5.29310033 8.01867825 -1.625 8.125 C-0.41263672 8.15207031 -0.41263672 8.15207031 0.82421875 8.1796875 C1.74654297 8.21449219 1.74654297 8.21449219 2.6875 8.25 C2.6875 7.59 2.6875 6.93 2.6875 6.25 C-0.2825 6.25 -3.2525 6.25 -6.3125 6.25 C-5.2090677 0.10230575 -5.2090677 0.10230575 0 0 Z " fill="#202020" transform="translate(430.3125,202.75)"/>
<path d="M0 0 C1.39403756 -0.10933628 2.79063776 -0.18619553 4.1875 -0.25 C4.96480469 -0.29640625 5.74210938 -0.3428125 6.54296875 -0.390625 C10.11654699 0.17751145 11.59714027 1.30153362 14 4 C14.40068215 6.95129314 14.5254903 9.26850705 14.375 12.1875 C14.35373047 13.29254883 14.35373047 13.29254883 14.33203125 14.41992188 C14.18308006 19.81691994 14.18308006 19.81691994 13 21 C10.90083974 21.17858965 8.79377312 21.26798477 6.6875 21.3125 C4.96080078 21.36857422 4.96080078 21.36857422 3.19921875 21.42578125 C0 21 0 21 -2.39453125 19.171875 C-4.53663829 16.27403677 -4.45022906 14.52679432 -4 11 C-3.34 10.01 -2.68 9.02 -2 8 C0.1640625 7.70703125 0.1640625 7.70703125 2.625 7.8125 C3.44226563 7.83957031 4.25953125 7.86664063 5.1015625 7.89453125 C5.72804688 7.92933594 6.35453125 7.96414062 7 8 C7.33 6.68 7.66 5.36 8 4 C4.7 4.33 1.4 4.66 -2 5 C-1.34 3.35 -0.68 1.7 0 0 Z " fill="#373737" transform="translate(554,203)"/>
<path d="M0 0 C0 1.65 0 3.3 0 5 C-1.98 5.99 -1.98 5.99 -4 7 C-3.01 7.33 -2.02 7.66 -1 8 C-1 9.32 -1 10.64 -1 12 C-2.32 12 -3.64 12 -5 12 C-5 17.28 -5 22.56 -5 28 C-6.32 28 -7.64 28 -9 28 C-9 22.72 -9 17.44 -9 12 C-11.64 12 -14.28 12 -17 12 C-17 16.29 -17 20.58 -17 25 C-15.68 25.33 -14.36 25.66 -13 26 C-13.33 26.66 -13.66 27.32 -14 28 C-15.66611905 28.042721 -17.33382885 28.04063832 -19 28 C-20 27 -20 27 -20.09765625 23.62109375 C-20.09098369 22.22652923 -20.07902532 20.83198257 -20.0625 19.4375 C-20.05798828 18.72658203 -20.05347656 18.01566406 -20.04882812 17.28320312 C-20.03700864 15.52209987 -20.01907263 13.76103964 -20 12 C-21.32 12 -22.64 12 -24 12 C-24 10.68 -24 9.36 -24 8 C-22.68 8 -21.36 8 -20 8 C-20 6.35 -20 4.7 -20 3 C-19.01 3 -18.02 3 -17 3 C-17 4.65 -17 6.3 -17 8 C-14.36 8 -11.72 8 -9 8 C-8.8453125 6.576875 -8.8453125 6.576875 -8.6875 5.125 C-7.5463369 -0.062105 -4.75621621 -0.25709277 0 0 Z " fill="#151515" transform="translate(593,195)"/>
<path d="M0 0 C1.65 0 3.3 0 5 0 C5 16.83 5 33.66 5 51 C3.35 51 1.7 51 0 51 C0 34.17 0 17.34 0 0 Z " fill="#000000" transform="translate(599,106)"/>
<path d="M0 0 C1.41569064 -0.08167446 2.83276805 -0.13949698 4.25 -0.1875 C5.43335938 -0.23970703 5.43335938 -0.23970703 6.640625 -0.29296875 C9.75637144 0.09392029 10.9377396 0.6002788 13 3 C13.29561076 5.87038052 13.37943016 8.33754745 13.25 11.1875 C13.23195313 11.93708984 13.21390625 12.68667969 13.1953125 13.45898438 C13.14824109 15.3065371 13.07649766 17.15343159 13 19 C9.91701949 20.02766017 7.66869574 20.16598738 4.4375 20.1875 C2.98150391 20.20876953 2.98150391 20.20876953 1.49609375 20.23046875 C-1 20 -1 20 -3 18 C-3.32752234 15.28545044 -3.1308425 12.74769241 -3 10 C-2 9 -2 9 0.50390625 8.90234375 C2.01791016 8.91974609 2.01791016 8.91974609 3.5625 8.9375 C4.57441406 8.94652344 5.58632813 8.95554688 6.62890625 8.96484375 C7.80259766 8.98224609 7.80259766 8.98224609 9 9 C8.67 7.68 8.34 6.36 8 5 C4.7 5 1.4 5 -2 5 C-1.34 3.35 -0.68 1.7 0 0 Z " fill="#292929" transform="translate(386,203)"/>
<path d="M0 0 C3.45826342 -0.05789006 6.91640293 -0.09355821 10.375 -0.125 C11.35984375 -0.14175781 12.3446875 -0.15851563 13.359375 -0.17578125 C14.77089844 -0.18544922 14.77089844 -0.18544922 16.2109375 -0.1953125 C17.51490479 -0.21102295 17.51490479 -0.21102295 18.84521484 -0.22705078 C21 0 21 0 23 2 C23.14517744 4.9093558 23.18630796 7.719946 23.125 10.625 C23.11597656 11.42679688 23.10695313 12.22859375 23.09765625 13.0546875 C23.07406223 15.03658523 23.03819065 17.01832981 23 19 C21.35 19 19.7 19 18 19 C18 14.05 18 9.1 18 4 C16.02 4 14.04 4 12 4 C11.67 8.95 11.34 13.9 11 19 C9.68 19 8.36 19 7 19 C6.67 14.05 6.34 9.1 6 4 C5.34 4 4.68 4 4 4 C4 3.34 4 2.68 4 2 C2.68 1.34 1.36 0.68 0 0 Z " fill="#181818" transform="translate(633,204)"/>
<path d="M0 0 C2.5625 1.4375 2.5625 1.4375 4 4 C4.16629381 7.12078054 3.96105155 10.01901376 3 13 C-0.09780948 15.06520632 -0.9540481 15.29477024 -4.5 15.3125 C-5.66015625 15.33763672 -5.66015625 15.33763672 -6.84375 15.36328125 C-9.54811951 14.90765378 -10.40548786 14.20932403 -12 12 C-12.75 5.25 -12.75 5.25 -10.5 1.5 C-6.95891316 -0.62465211 -4.0258803 -0.78212398 0 0 Z " fill="#0F0F0F" transform="translate(328,83)"/>
<path d="M0 0 C1.98 0 3.96 0 6 0 C6 8.91 6 17.82 6 27 C4.02 27 2.04 27 0 27 C0 18.09 0 9.18 0 0 Z " fill="#363636" transform="translate(413,196)"/>
<path d="M0 0 C5.94 0 11.88 0 18 0 C18 1.32 18 2.64 18 4 C13.71 4 9.42 4 5 4 C5.66 6.97 6.32 9.94 7 13 C4 15 4 15 0 15 C0 10.05 0 5.1 0 0 Z " fill="#060606" transform="translate(489,197)"/>
<path d="M0 0 C0 1.32 0 2.64 0 4 C-1.98 4.33 -3.96 4.66 -6 5 C-6 8.63 -6 12.26 -6 16 C-4.68 16.66 -3.36 17.32 -2 18 C-2 18.33 -2 18.66 -2 19 C-8.50193498 19.36803406 -8.50193498 19.36803406 -10.67578125 17.76171875 C-13.0775347 14.56646564 -13.11653219 10.900401 -13 7 C-11.77958841 3.98108712 -10.80119643 2.58017673 -8.1875 0.6875 C-5.39313203 -0.19072993 -2.91020204 -0.13228191 0 0 Z " fill="#1F1F1F" transform="translate(605,203)"/>
<path d="M0 0 C0.99 0 1.98 0 3 0 C3 1.65 3 3.3 3 5 C5.64 5 8.28 5 11 5 C11 5.66 11 6.32 11 7 C10.34 7 9.68 7 9 7 C9 7.66 9 8.32 9 9 C7.02 9 5.04 9 3 9 C3 13.29 3 17.58 3 22 C4.32 22.33 5.64 22.66 7 23 C6.67 23.66 6.34 24.32 6 25 C4.33388095 25.042721 2.66617115 25.04063832 1 25 C0 24 0 24 -0.09765625 20.62109375 C-0.09098369 19.22652923 -0.07902532 17.83198257 -0.0625 16.4375 C-0.05798828 15.72658203 -0.05347656 15.01566406 -0.04882812 14.28320312 C-0.03700864 12.52209987 -0.01907263 10.76103964 0 9 C-1.32 9 -2.64 9 -4 9 C-4 7.68 -4 6.36 -4 5 C-2.68 5 -1.36 5 0 5 C0 3.35 0 1.7 0 0 Z " fill="#282828" transform="translate(573,198)"/>
<path d="M0 0 C2.64 0 5.28 0 8 0 C8 5.28 8 10.56 8 16 C6.35 16 4.7 16 3 16 C3 15.34 3 14.68 3 14 C2.01 13.67 1.02 13.34 0 13 C0 8.71 0 4.42 0 0 Z " fill="#EAEAEA" transform="translate(576,207)"/>
<path d="M0 0 C3.3 0 6.6 0 10 0 C9.67 1.32 9.34 2.64 9 4 C7.68 4 6.36 4 5 4 C5 8.95 5 13.9 5 19 C3.35 19 1.7 19 0 19 C0 12.73 0 6.46 0 0 Z " fill="#464646" transform="translate(616,204)"/>
<path d="M0 0 C2 2 2 2 2.3125 5.9375 C2.23330121 8.49981382 2.11578846 9.78772116 0.875 12.0625 C-1.990802 13.495401 -3.99548152 12.84910305 -7 12 C-8.24200301 9.51599398 -7.98221651 8.17792364 -7.6875 5.4375 C-7.60886719 4.63183594 -7.53023437 3.82617188 -7.44921875 2.99609375 C-7.30097656 2.33738281 -7.15273438 1.67867187 -7 1 C-4.48718205 -0.25640898 -2.78302919 -0.20872719 0 0 Z " fill="#E8E8E8" transform="translate(606,207)"/>
<path d="M0 0 C2.42522207 2.42522207 2.29629254 3.1720679 2.3125 6.5 C2.33763672 7.69109375 2.33763672 7.69109375 2.36328125 8.90625 C2.24339844 9.5971875 2.12351562 10.288125 2 11 C-1 13 -1 13 -3.625 12.6875 C-6 12 -6 12 -7 11 C-7.07205511 9.31391034 -7.08386068 7.62499341 -7.0625 5.9375 C-7.05347656 5.01839844 -7.04445313 4.09929687 -7.03515625 3.15234375 C-7.02355469 2.44207031 -7.01195312 1.73179687 -7 1 C-4.48718205 -0.25640898 -2.78302919 -0.20872719 0 0 Z " fill="#F0F0F0" transform="translate(533,207)"/>
<path d="M0 0 C4.29 0 8.58 0 13 0 C13.33 0.66 13.66 1.32 14 2 C13.34 2 12.68 2 12 2 C12 2.66 12 3.32 12 4 C9.69 4.33 7.38 4.66 5 5 C5 7.64 5 10.28 5 13 C4.67 13 4.34 13 4 13 C3.93941406 12.36191406 3.87882813 11.72382813 3.81640625 11.06640625 C3.73261719 10.24011719 3.64882813 9.41382813 3.5625 8.5625 C3.44068359 7.32693359 3.44068359 7.32693359 3.31640625 6.06640625 C3.21069185 4.01337975 3.21069185 4.01337975 2 3 C1.67 10.59 1.34 18.18 1 26 C1.99 26 2.98 26 4 26 C4 23.69 4 21.38 4 19 C4.99 19.33 5.98 19.66 7 20 C6.34 20 5.68 20 5 20 C5 22.31 5 24.62 5 27 C3.35 27 1.7 27 0 27 C0 18.09 0 9.18 0 0 Z " fill="#4C4C4C" transform="translate(521,203)"/>
<path d="M0 0 C1.485 0.99 1.485 0.99 3 2 C3.37109375 3.953125 3.37109375 3.953125 3.4375 6.25 C3.78706631 10.95394661 5.08976581 13.33873763 8 17 C6.35 17 4.7 17 3 17 C3 19.31 3 21.62 3 24 C2.01 24 1.02 24 0 24 C0 16.08 0 8.16 0 0 Z " fill="#121212" transform="translate(522,205)"/>
<path d="M0 0 C0.99 0 1.98 0 3 0 C3 8.91 3 17.82 3 27 C2.01 27 1.02 27 0 27 C0 18.09 0 9.18 0 0 Z " fill="#252525" transform="translate(543,196)"/>
<path d="M0 0 C1.22589844 0.01353516 1.22589844 0.01353516 2.4765625 0.02734375 C3.41628906 0.04474609 3.41628906 0.04474609 4.375 0.0625 C4.705 1.7125 5.035 3.3625 5.375 5.0625 C3.75 6.625 3.75 6.625 1.375 8.0625 C-1.64233125 7.8211135 -3.91783042 7.41608479 -6.625 6.0625 C-6.625 4.4125 -6.625 2.7625 -6.625 1.0625 C-4.21954362 -0.14022819 -2.67503047 -0.03821472 0 0 Z " fill="#DCDCDC" transform="translate(497.625,210.9375)"/>
<path d="M0 0 C2.31 0 4.62 0 7 0 C8.36952673 2.73905345 8.12621361 4.97087332 8 8 C7.67 8.66 7.34 9.32 7 10 C4.69 10 2.38 10 0 10 C0 6.7 0 3.4 0 0 Z " fill="#E5E5E5" transform="translate(449,208)"/>
<path d="M0 0 C2.05078125 0.03255208 4.1015625 0.06510417 6.15234375 0.09765625 C5.16234375 0.75765625 4.17234375 1.41765625 3.15234375 2.09765625 C2.41890947 5.16322223 2.41890947 5.16322223 2.15234375 8.09765625 C5.12234375 8.59265625 5.12234375 8.59265625 8.15234375 9.09765625 C8.15234375 9.75765625 8.15234375 10.41765625 8.15234375 11.09765625 C6.69441491 11.15165361 5.23591663 11.19044802 3.77734375 11.22265625 C2.96523438 11.24585938 2.153125 11.2690625 1.31640625 11.29296875 C-0.84765625 11.09765625 -0.84765625 11.09765625 -2.84765625 9.09765625 C-3.17517859 6.38310669 -2.97849875 3.84534866 -2.84765625 1.09765625 C-1.84765625 0.09765625 -1.84765625 0.09765625 0 0 Z " fill="#1E1E1E" transform="translate(385.84765625,211.90234375)"/>
<path d="M0 0 C3 -0.3125 3 -0.3125 6 0 C6.66 0.66 7.32 1.32 8 2 C6.68 2 5.36 2 4 2 C4 4.97 4 7.94 4 11 C4.66 11.33 5.32 11.66 6 12 C3.125 12.1875 3.125 12.1875 0 12 C-2.31332486 8.53001271 -2.33957563 7.07490752 -2 3 C-1.34 2.01 -0.68 1.02 0 0 Z " fill="#292929" transform="translate(552,211)"/>
<path d="M0 0 C2.31 0.33 4.62 0.66 7 1 C6.67 3.31 6.34 5.62 6 8 C3.125 8.625 3.125 8.625 0 9 C-0.66 8.34 -1.32 7.68 -2 7 C-1.6730244 4.38419521 -1.17960932 2.35921863 0 0 Z " fill="#252525" transform="translate(747,88)"/>
<path d="M0 0 C1.134375 0.020625 2.26875 0.04125 3.4375 0.0625 C3.4375 2.3725 3.4375 4.6825 3.4375 7.0625 C1.1275 7.3925 -1.1825 7.7225 -3.5625 8.0625 C-3.94313221 5.7364143 -4.27519945 3.40194736 -4.5625 1.0625 C-3.5625 0.0625 -3.5625 0.0625 0 0 Z " fill="#1E1E1E" transform="translate(601.5625,88.9375)"/>
<path d="M0 0 C0.66 0.33 1.32 0.66 2 1 C2 6.61 2 12.22 2 18 C0.35 18 -1.3 18 -3 18 C-3 17.01 -3 16.02 -3 15 C-2.34 15 -1.68 15 -1 15 C-0.67 10.05 -0.34 5.1 0 0 Z " fill="#4F4F4F" transform="translate(654,205)"/>
<path d="M0 0 C0 1.65 0 3.3 0 5 C-5.625 8 -5.625 8 -9 8 C-8.6875 5.125 -8.6875 5.125 -8 2 C-4.77208445 -0.1519437 -3.71599191 -0.20086443 0 0 Z " fill="#313131" transform="translate(593,195)"/>
<path d="M0 0 C1.134375 0.020625 2.26875 0.04125 3.4375 0.0625 C3.1075 2.3725 2.7775 4.6825 2.4375 7.0625 C0.1275 6.7325 -2.1825 6.4025 -4.5625 6.0625 C-4.605221 4.39638095 -4.60313832 2.72867115 -4.5625 1.0625 C-3.5625 0.0625 -3.5625 0.0625 0 0 Z " fill="#D3D3D3" transform="translate(559.5625,213.9375)"/>
<path d="M0 0 C0.33 1.65 0.66 3.3 1 5 C-2.63 5 -6.26 5 -10 5 C-9.34 4.34 -8.68 3.68 -8 3 C-8.66 2.34 -9.32 1.68 -10 1 C-6.61981469 -0.04005702 -3.5219721 -0.08004482 0 0 Z " fill="#E2E2E2" transform="translate(394,207)"/>
<path d="M0 0 C2.31 0 4.62 0 7 0 C6.67 1.98 6.34 3.96 6 6 C4.02 6 2.04 6 0 6 C0 4.02 0 2.04 0 0 Z " fill="#E1E1E1" transform="translate(388,214)"/>
<path d="M0 0 C0.66 0 1.32 0 2 0 C2 2.97 2 5.94 2 9 C0.02 9 -1.96 9 -4 9 C-2.94124926 5.59687262 -1.99097846 2.98646769 0 0 Z " fill="#C5C5C5" transform="translate(475,203)"/>
<path d="M0 0 C0 1.65 0 3.3 0 5 C-2.97 4.67 -5.94 4.34 -9 4 C-9.33 3.01 -9.66 2.02 -10 1 C-6.52674819 -0.1577506 -3.63932552 -0.06866652 0 0 Z " fill="#E9E9E9" transform="translate(562,207)"/>
<path d="M0 0 C2.31 0.33 4.62 0.66 7 1 C6.67 1.99 6.34 2.98 6 4 C4.02 4 2.04 4 0 4 C0 2.68 0 1.36 0 0 Z " fill="#DCDCDC" transform="translate(427,215)"/>
</svg>
